<?xml version="1.0" encoding="utf-8"?>
<!-- Generator: Adobe Illustrator 19.0.0, SVG Export Plug-In . SVG Version: 6.00 Build 0)  -->
<svg version="1.1" id="Ebene_1" xmlns="http://www.w3.org/2000/svg" xmlns:xlink="http://www.w3.org/1999/xlink" x="0px" y="0px"
	 viewBox="0 0 1034.9 114" style="enable-background:new 0 0 1034.9 114;" xml:space="preserve">
<style type="text/css">
	.st0{fill:#BDBDBD;}
</style>
<g>
	<g>
		<g>
			<path class="st0" d="M782.5,30.3c-1.3-0.8-2.2-1.4-2.7-2c-0.5-0.6-0.7-1.2-0.7-1.9c0-0.7,0.2-1.3,0.8-1.8
				c0.5-0.5,1.3-0.8,2.3-0.8c0.7,0,1.3,0.1,1.8,0.3c0.5,0.2,1,0.4,1.3,0.6l0.8-4.2c-0.4-0.2-0.9-0.4-1.6-0.6
				c-0.7-0.2-1.5-0.3-2.3-0.3c-2.6,0.1-4.5,0.8-5.9,2.2c-1.3,1.4-2,3.1-2,5.1c0,1.1,0.3,2.3,1.1,3.5c0.7,1.2,1.9,2.3,3.6,3.4
				c1.1,0.7,1.9,1.3,2.4,1.9c0.5,0.6,0.8,1.3,0.8,2.2c0,0.8-0.3,1.5-0.9,2c-0.6,0.5-1.4,0.8-2.5,0.8c-0.7,0-1.4-0.1-2.2-0.3
				c-0.8-0.2-1.4-0.4-1.9-0.7L774,44c0.4,0.3,1.1,0.5,1.9,0.7c0.9,0.2,1.8,0.3,2.8,0.3c2.5,0,4.4-0.7,5.9-2.1
				c1.5-1.3,2.2-3.2,2.3-5.5c0-1.3-0.3-2.6-1-3.8C785.3,32.4,784.1,31.3,782.5,30.3z"/>
			<path class="st0" d="M578.9,30.3c-1.3-0.8-2.2-1.4-2.7-2c-0.5-0.6-0.7-1.2-0.7-1.9c0-0.7,0.2-1.3,0.8-1.8
				c0.5-0.5,1.3-0.8,2.3-0.8c0.7,0,1.3,0.1,1.8,0.3c0.5,0.2,1,0.4,1.3,0.6l0.8-4.2c-0.4-0.2-0.9-0.4-1.6-0.6
				c-0.7-0.2-1.5-0.3-2.3-0.3c-2.6,0.1-4.5,0.8-5.9,2.2c-1.3,1.4-2,3.1-2,5.1c0,1.1,0.3,2.3,1.1,3.5c0.7,1.2,1.9,2.3,3.6,3.4
				c1.1,0.7,1.9,1.3,2.4,1.9c0.5,0.6,0.8,1.3,0.8,2.2c0,0.8-0.3,1.5-0.9,2c-0.6,0.5-1.4,0.8-2.5,0.8c-0.7,0-1.4-0.1-2.2-0.3
				c-0.8-0.2-1.4-0.4-1.9-0.7l-0.7,4.2c0.4,0.3,1.1,0.5,1.9,0.7c0.9,0.2,1.8,0.3,2.8,0.3c2.5,0,4.4-0.7,5.9-2.1
				c1.5-1.3,2.2-3.2,2.3-5.5c0-1.3-0.3-2.6-1-3.8C581.7,32.4,580.5,31.3,578.9,30.3z"/>
			<path class="st0" d="M532.6,23.9c0.5,0,1,0,1.3,0.1c0.4,0.1,0.7,0.2,0.9,0.3l0.8-4.1c-0.2-0.2-0.7-0.3-1.2-0.4
				c-0.6-0.1-1.3-0.2-2.1-0.2c-1.6,0-3.2,0.4-4.7,1.3c-1.5,0.9-2.8,2.3-3.8,4.2c-1,1.9-1.5,4.4-1.5,7.5c0,2.4,0.3,4.5,1,6.3
				c0.7,1.8,1.7,3.3,3.1,4.3c1.4,1.1,3.1,1.6,5.3,1.6c0.8,0,1.6-0.1,2.2-0.2c0.6-0.1,1.1-0.3,1.5-0.4l-0.5-4.1
				c-0.3,0.1-0.7,0.2-1.1,0.3c-0.4,0.1-0.8,0.1-1.2,0.1c-1.5,0-2.7-0.6-3.7-1.9c-1-1.3-1.5-3.4-1.5-6.4c0-3,0.6-5.2,1.6-6.6
				C530,24.5,531.2,23.9,532.6,23.9z"/>
			<rect x="560.7" y="19.9" class="st0" width="4.8" height="24.9"/>
			<polygon class="st0" points="549.8,29.8 544.7,29.8 544.7,19.9 539.9,19.9 539.9,44.7 544.7,44.7 544.7,34.3 549.8,34.3 
				549.8,44.7 554.6,44.7 554.6,19.9 549.8,19.9 			"/>
			<path class="st0" d="M764.5,36c0,1.8-0.2,3.1-0.7,3.8c-0.4,0.7-1,1-1.7,1c-0.7,0-1.2-0.3-1.7-1c-0.4-0.7-0.7-2-0.7-3.7V19.9h-4.8
				v15.4c0,3.1,0.5,5.5,1.7,7.2c1.1,1.7,3,2.6,5.6,2.6c2.4,0,4.2-0.9,5.4-2.5c1.2-1.7,1.8-4.1,1.8-7.3V19.9h-4.8V36z"/>
			<polygon class="st0" points="668.4,44.7 673.3,44.7 673.3,34.5 678.9,34.5 678.9,30.5 673.3,30.5 673.3,24.1 679.2,24.1 
				679.2,19.9 668.4,19.9 			"/>
			<path class="st0" d="M654.7,38c-0.2-1.3-0.6-2.4-1.1-3.2c-0.5-0.8-1.1-1.4-2-1.7c1.3-0.7,2.2-1.5,2.9-2.6c0.6-1.1,1-2.3,1-3.7
				c0-1.1-0.1-2-0.4-2.9c-0.3-0.8-0.8-1.6-1.6-2.3c-0.8-0.7-1.8-1.2-2.9-1.5c-1.1-0.3-2.4-0.4-3.7-0.4c-0.9,0-1.9,0-2.8,0.1
				c-0.9,0.1-1.7,0.2-2.5,0.4v24.5h4.8v-9.9h0.7c0.8,0,1.4,0.2,1.8,0.8c0.4,0.6,0.8,1.6,1,3.1c0.2,1.4,0.4,2.7,0.6,3.8
				c0.2,1.1,0.4,1.8,0.6,2.2h5.1c-0.2-0.5-0.5-1.4-0.8-2.7C655.2,40.8,654.9,39.4,654.7,38z M649.7,30c-0.6,0.7-1.4,1.1-2.4,1.1
				h-0.9v-7.4c0.1-0.1,0.3-0.1,0.5-0.1c0.2,0,0.4,0,0.7,0c1.1,0.1,1.8,0.4,2.3,1.1c0.5,0.7,0.7,1.5,0.7,2.6
				C650.6,28.3,650.3,29.2,649.7,30z"/>
			<path class="st0" d="M724.9,19.9l-2,9c-0.3,1.6-0.6,3.1-0.9,4.5c-0.3,1.4-0.5,2.8-0.7,4.2c-0.3-1.4-0.6-2.8-0.9-4.2l-0.9-4.5
				l-2-9h-5.1l-1.8,24.9h4.1l0.4-8.6l0.2-4.1c0.1-1.5,0.1-2.9,0.2-4.2c0.3,1.4,0.5,2.8,0.8,4.2c0.3,1.4,0.6,2.6,0.8,3.6l2.1,8.7h3.4
				l2.2-8.9c0.2-1,0.5-2.2,0.8-3.5c0.3-1.4,0.5-2.7,0.8-4.1c0.1,1.4,0.1,2.8,0.1,4.2c0.1,1.5,0.1,2.8,0.2,4l0.4,8.7h4.3L730,19.9
				H724.9z"/>
			<rect x="684.7" y="19.9" class="st0" width="4.8" height="24.9"/>
			<polygon class="st0" points="614.3,29.8 609.2,29.8 609.2,19.9 604.4,19.9 604.4,44.7 609.2,44.7 609.2,34.3 614.3,34.3 
				614.3,44.7 619.1,44.7 619.1,19.9 614.3,19.9 			"/>
			<path class="st0" d="M740.3,19.9L735,44.7h4.7l1.1-5.7h4.5l1,5.7h4.7l-4.8-24.9H740.3z M741.2,35.3l0.9-5.2
				c0.1-0.8,0.3-1.7,0.4-2.7l0.4-2.9l0.5,2.9c0.1,1.1,0.3,2,0.4,2.8l0.8,5.2H741.2z"/>
			<polygon class="st0" points="630,33.8 635.7,33.8 635.7,29.8 630,29.8 630,24.1 636,24.1 636,19.9 625.2,19.9 625.2,44.7 
				636.4,44.7 636.4,40.5 630,40.5 			"/>
			<polygon class="st0" points="700.5,19.9 695.7,19.9 695.7,44.7 706.9,44.7 706.9,40.6 700.5,40.6 			"/>
			<polygon class="st0" points="446.3,33.8 451.9,33.8 451.9,29.8 446.3,29.8 446.3,24.1 452.3,24.1 452.3,19.9 441.5,19.9 
				441.5,44.7 452.7,44.7 452.7,40.5 446.3,40.5 			"/>
			<path class="st0" d="M255.9,30.5c-0.2,1.4-0.4,2.8-0.6,4.3c-0.2,1.5-0.4,2.9-0.5,4.4c-0.2-1.5-0.4-2.9-0.7-4.4l-0.7-4.2
				l-1.8-10.7h-5.3l5.5,24.9h5.4l5.7-24.9h-5.3L255.9,30.5z"/>
			<polygon class="st0" points="271.6,33.8 277.3,33.8 277.3,29.8 271.6,29.8 271.6,24.1 277.6,24.1 277.6,19.9 266.8,19.9 
				266.8,44.7 278,44.7 278,40.5 271.6,40.5 			"/>
			<path class="st0" d="M296.3,38c-0.2-1.3-0.6-2.4-1.1-3.2c-0.5-0.8-1.1-1.4-2-1.7c1.3-0.7,2.2-1.5,2.9-2.6c0.6-1.1,1-2.3,1-3.7
				c0-1.1-0.1-2-0.4-2.9c-0.3-0.8-0.8-1.6-1.6-2.3c-0.8-0.7-1.8-1.2-2.9-1.5c-1.1-0.3-2.4-0.4-3.7-0.4c-0.9,0-1.9,0-2.8,0.1
				c-0.9,0.1-1.7,0.2-2.5,0.4v24.5h4.8v-9.9h0.7c0.8,0,1.4,0.2,1.8,0.8c0.4,0.6,0.8,1.6,1,3.1c0.2,1.4,0.4,2.7,0.6,3.8
				c0.2,1.1,0.4,1.8,0.6,2.2h5.1c-0.2-0.5-0.5-1.4-0.8-2.7C296.8,40.8,296.5,39.4,296.3,38z M291.3,30c-0.6,0.7-1.4,1.1-2.4,1.1H288
				v-7.4c0.1-0.1,0.3-0.1,0.5-0.1c0.2,0,0.4,0,0.7,0c1.1,0.1,1.8,0.4,2.3,1.1c0.5,0.7,0.7,1.5,0.7,2.6
				C292.2,28.3,291.9,29.2,291.3,30z"/>
			<path class="st0" d="M325.5,19.9l-5.4,24.9h4.7l1.1-5.7h4.5l1,5.7h4.7l-4.8-24.9H325.5z M326.4,35.3l0.9-5.2
				c0.1-0.8,0.3-1.7,0.4-2.7l0.4-2.9l0.5,2.9c0.1,1.1,0.3,2,0.4,2.8l0.8,5.2H326.4z"/>
			<path class="st0" d="M312.5,31.6c1.2-0.7,2.1-1.5,2.7-2.4c0.6-1,0.9-2,0.9-3.1c0-0.9-0.1-1.7-0.4-2.5c-0.3-0.8-0.8-1.5-1.4-2
				c-0.9-0.7-1.9-1.2-2.9-1.4c-1.1-0.2-2.2-0.4-3.4-0.3c-1,0-2,0-3,0.1c-0.9,0.1-1.8,0.2-2.5,0.4v24.4c0.6,0.1,1.2,0.1,2,0.2
				c0.8,0,1.6,0.1,2.5,0.1c2.1,0,3.8-0.2,5.1-0.6c1.3-0.4,2.3-1,3.1-1.9c0.6-0.6,1.1-1.3,1.4-2.1c0.3-0.8,0.5-1.7,0.5-2.7
				c0-1.4-0.4-2.6-1.1-3.7C315,32.8,313.9,32,312.5,31.6z M307.2,23.5c0.1-0.1,0.3-0.1,0.5-0.1c0.2,0,0.5,0,0.7,0
				c1,0,1.7,0.3,2.1,0.9c0.5,0.6,0.7,1.4,0.7,2.3c0,1-0.3,1.8-0.9,2.5c-0.6,0.6-1.3,1-2.2,1h-1V23.5z M310.8,40.3
				c-0.7,0.6-1.5,0.9-2.5,0.9l-0.6,0c-0.2,0-0.3,0-0.5-0.1v-7.5h1c1,0,1.8,0.3,2.5,1c0.7,0.6,1.1,1.6,1.1,2.8
				C311.8,38.7,311.5,39.7,310.8,40.3z"/>
			<path class="st0" d="M392.5,18.4L392.5,18.4c0.6,0,1.2-0.2,1.6-0.7c0.4-0.4,0.6-1,0.6-1.7c0-0.7-0.2-1.2-0.6-1.6
				c-0.4-0.4-0.9-0.7-1.5-0.7c-0.6,0-1.1,0.2-1.5,0.7c-0.4,0.4-0.6,1-0.7,1.6c0,0.7,0.2,1.2,0.6,1.7
				C391.4,18.1,391.9,18.3,392.5,18.4z"/>
			<path class="st0" d="M399.3,18.4L399.3,18.4c0.6,0,1.2-0.2,1.6-0.7c0.4-0.4,0.6-1,0.6-1.7c0-0.7-0.2-1.2-0.6-1.6
				c-0.4-0.4-0.9-0.7-1.5-0.7c-0.6,0-1.1,0.2-1.5,0.7c-0.4,0.4-0.6,1-0.7,1.6c0,0.7,0.2,1.2,0.6,1.7
				C398.2,18.1,398.7,18.3,399.3,18.4z"/>
			<rect x="512.5" y="19.9" class="st0" width="4.8" height="24.9"/>
			<path class="st0" d="M470.9,38c-0.2-1.3-0.6-2.4-1.1-3.2c-0.5-0.8-1.1-1.4-2-1.7c1.3-0.7,2.2-1.5,2.9-2.6c0.6-1.1,1-2.3,1-3.7
				c0-1.1-0.1-2-0.4-2.9s-0.8-1.6-1.6-2.3c-0.8-0.7-1.8-1.2-2.9-1.5c-1.1-0.3-2.4-0.4-3.7-0.4c-0.9,0-1.9,0-2.8,0.1
				c-0.9,0.1-1.7,0.2-2.5,0.4v24.5h4.8v-9.9h0.7c0.8,0,1.4,0.2,1.8,0.8c0.4,0.6,0.8,1.6,1,3.1c0.2,1.4,0.4,2.7,0.6,3.8
				c0.2,1.1,0.4,1.8,0.6,2.2h5.1c-0.2-0.5-0.5-1.4-0.8-2.7C471.4,40.8,471.2,39.4,470.9,38z M466,30c-0.6,0.7-1.4,1.1-2.4,1.1h-0.9
				v-7.4c0.1-0.1,0.3-0.1,0.5-0.1c0.2,0,0.4,0,0.7,0c1.1,0.1,1.8,0.4,2.3,1.1c0.5,0.7,0.7,1.5,0.7,2.6C466.8,28.3,466.5,29.2,466,30
				z"/>
			<path class="st0" d="M798.8,30.3c-1.3-0.8-2.2-1.4-2.7-2c-0.5-0.6-0.7-1.2-0.7-1.9c0-0.7,0.3-1.3,0.8-1.8
				c0.5-0.5,1.3-0.8,2.3-0.8c0.7,0,1.3,0.1,1.8,0.3c0.5,0.2,1,0.4,1.3,0.6l0.8-4.2c-0.4-0.2-0.9-0.4-1.6-0.6
				c-0.7-0.2-1.5-0.3-2.3-0.3c-2.6,0.1-4.5,0.8-5.9,2.2c-1.3,1.4-2,3.1-2,5.1c0,1.1,0.3,2.3,1.1,3.5c0.7,1.2,1.9,2.3,3.6,3.4
				c1.1,0.7,1.9,1.3,2.4,1.9c0.5,0.6,0.8,1.3,0.8,2.2c0,0.8-0.3,1.5-0.9,2c-0.6,0.5-1.4,0.8-2.5,0.8c-0.7,0-1.4-0.1-2.2-0.3
				c-0.8-0.2-1.4-0.4-1.9-0.7l-0.7,4.2c0.4,0.3,1.1,0.5,1.9,0.7c0.9,0.2,1.8,0.3,2.8,0.3c2.5,0,4.4-0.7,5.9-2.1
				c1.5-1.3,2.2-3.2,2.3-5.5c0-1.3-0.3-2.6-1-3.8C801.6,32.4,800.5,31.3,798.8,30.3z"/>
			<path class="st0" d="M490.1,38c-0.2-1.3-0.6-2.4-1.1-3.2c-0.5-0.8-1.1-1.4-2-1.7c1.3-0.7,2.2-1.5,2.9-2.6c0.6-1.1,1-2.3,1-3.7
				c0-1.1-0.1-2-0.4-2.9c-0.3-0.8-0.8-1.6-1.6-2.3c-0.8-0.7-1.8-1.2-2.9-1.5c-1.1-0.3-2.4-0.4-3.7-0.4c-0.9,0-1.9,0-2.8,0.1
				c-0.9,0.1-1.7,0.2-2.5,0.4v24.5h4.8v-9.9h0.7c0.8,0,1.4,0.2,1.8,0.8c0.4,0.6,0.8,1.6,1,3.1c0.2,1.4,0.4,2.7,0.6,3.8
				s0.4,1.8,0.6,2.2h5.1c-0.2-0.5-0.5-1.4-0.8-2.7C490.6,40.8,490.3,39.4,490.1,38z M485.1,30c-0.6,0.7-1.4,1.1-2.4,1.1h-0.9v-7.4
				c0.1-0.1,0.3-0.1,0.5-0.1c0.2,0,0.4,0,0.7,0c1.1,0.1,1.8,0.4,2.3,1.1c0.5,0.7,0.7,1.5,0.7,2.6C486,28.3,485.7,29.2,485.1,30z"/>
			<polygon class="st0" points="501,33.8 506.6,33.8 506.6,29.8 501,29.8 501,24.1 507,24.1 507,19.9 496.1,19.9 496.1,44.7 
				507.4,44.7 507.4,40.5 501,40.5 			"/>
			<polygon class="st0" points="423.5,24.3 427.8,24.3 427.8,44.7 432.7,44.7 432.7,24.3 437.1,24.3 437.1,19.9 423.5,19.9 			"/>
			<path class="st0" d="M351.3,25.4c0,2.3,0.1,4.5,0.2,6.5l0.3,5c-0.4-1.1-0.9-2.4-1.4-3.7c-0.5-1.4-0.9-2.5-1.4-3.5l-3.8-9.8h-4.4
				v24.9h4.2v-5.6c0-2.5,0-4.7-0.1-6.6c-0.1-1.9-0.1-3.5-0.2-4.7c0.4,1.1,0.8,2.4,1.3,3.8c0.5,1.4,0.9,2.6,1.4,3.7l3.8,9.5h4.4V19.9
				h-4.2V25.4z"/>
			<path class="st0" d="M400.9,21.5c-1.1-1.2-2.7-1.9-4.6-1.9c-1.8,0-3.4,0.6-4.6,1.8c-1.2,1.2-2.1,2.7-2.7,4.6
				c-0.6,1.9-0.9,4-0.9,6.3c0,2.3,0.3,4.4,0.8,6.4c0.5,1.9,1.4,3.5,2.5,4.6c1.2,1.2,2.7,1.8,4.6,1.8h0c2.4,0,4.3-1,5.8-3.1
				c1.5-2.1,2.2-5.5,2.2-10.1c0-1.9-0.2-3.8-0.7-5.7C402.8,24.3,402,22.7,400.9,21.5z M398.2,38.4c-0.4,1.6-1.2,2.4-2.2,2.5h0
				c-1.1-0.1-1.8-0.9-2.3-2.5c-0.5-1.6-0.7-3.6-0.7-6.2c0-1.5,0.1-2.9,0.3-4.2c0.2-1.3,0.5-2.3,1-3.1c0.4-0.8,1-1.2,1.7-1.2
				c0.7,0,1.3,0.4,1.7,1.2c0.4,0.8,0.7,1.8,0.9,3c0.2,1.3,0.3,2.6,0.3,4.1C398.9,34.7,398.7,36.8,398.2,38.4z"/>
			<path class="st0" d="M373.4,22c-0.8-0.7-1.7-1.3-2.9-1.7c-1.1-0.4-2.5-0.6-4-0.6c-1,0-1.9,0-2.7,0.1c-0.8,0.1-1.6,0.2-2.2,0.4
				v24.4c0.5,0.1,1.1,0.1,1.8,0.2c0.7,0.1,1.4,0.1,2.2,0.1c1.7,0,3.2-0.2,4.4-0.6c1.2-0.4,2.3-1,3.1-1.8c1.1-1,1.9-2.3,2.5-4.1
				c0.6-1.8,0.9-3.9,0.9-6.4c0-2.4-0.3-4.4-0.8-6.1C375.3,24.2,374.5,22.9,373.4,22z M370.4,39c-0.8,1.4-1.9,2.1-3.1,2l-0.4,0
				c-0.2,0-0.3,0-0.4-0.1V23.7c0.2-0.1,0.3-0.1,0.5-0.1l0.5,0c1.5,0,2.5,0.8,3.2,2.2c0.7,1.4,1,3.4,1,6
				C371.6,35.2,371.2,37.6,370.4,39z"/>
			<path class="st0" d="M416,30.3c-1.3-0.8-2.2-1.4-2.7-2c-0.5-0.6-0.7-1.2-0.7-1.9c0-0.7,0.3-1.3,0.8-1.8c0.5-0.5,1.3-0.8,2.3-0.8
				c0.7,0,1.3,0.1,1.8,0.3c0.5,0.2,1,0.4,1.3,0.6l0.8-4.2c-0.4-0.2-0.9-0.4-1.6-0.6c-0.7-0.2-1.5-0.3-2.3-0.3
				c-2.6,0.1-4.5,0.8-5.9,2.2c-1.3,1.4-2,3.1-2,5.1c0,1.1,0.3,2.3,1.1,3.5c0.7,1.2,1.9,2.3,3.6,3.4c1.1,0.7,1.9,1.3,2.4,1.9
				c0.5,0.6,0.8,1.3,0.8,2.2c0,0.8-0.3,1.5-0.9,2c-0.6,0.5-1.4,0.8-2.5,0.8c-0.7,0-1.4-0.1-2.2-0.3c-0.8-0.2-1.4-0.4-1.9-0.7
				l-0.7,4.2c0.4,0.3,1.1,0.5,1.9,0.7c0.9,0.2,1.8,0.3,2.8,0.3c2.5,0,4.4-0.7,5.9-2.1c1.5-1.3,2.2-3.2,2.3-5.5c0-1.3-0.3-2.6-1-3.8
				C418.8,32.4,417.6,31.3,416,30.3z"/>
			<path class="st0" d="M597.1,23.9c0.5,0,1,0,1.3,0.1c0.4,0.1,0.7,0.2,0.9,0.3l0.8-4.1c-0.2-0.2-0.7-0.3-1.2-0.4
				c-0.6-0.1-1.3-0.2-2.1-0.2c-1.6,0-3.2,0.4-4.7,1.3c-1.5,0.9-2.8,2.3-3.8,4.2c-1,1.9-1.5,4.4-1.5,7.5c0,2.4,0.3,4.5,1,6.3
				c0.7,1.8,1.7,3.3,3.1,4.3c1.4,1.1,3.1,1.6,5.3,1.6c0.8,0,1.6-0.1,2.2-0.2c0.6-0.1,1.1-0.3,1.5-0.4l-0.5-4.1
				c-0.3,0.1-0.7,0.2-1.1,0.3c-0.4,0.1-0.8,0.1-1.2,0.1c-1.5,0-2.7-0.6-3.7-1.9s-1.5-3.4-1.5-6.4c0-3,0.6-5.2,1.6-6.6
				C594.5,24.5,595.7,23.9,597.1,23.9z"/>
			<polygon class="st0" points="806.3,24.3 810.7,24.3 810.7,44.7 815.5,44.7 815.5,24.3 820,24.3 820,19.9 806.3,19.9 			"/>
			<path class="st0" d="M955.6,25.4c0,2.3,0.1,4.5,0.2,6.5l0.3,5c-0.4-1.1-0.9-2.4-1.4-3.7c-0.5-1.4-1-2.5-1.4-3.5l-3.8-9.8h-4.4
				v24.9h4.2v-5.6c0-2.5,0-4.7-0.1-6.6c-0.1-1.9-0.1-3.5-0.2-4.7c0.4,1.1,0.8,2.4,1.2,3.8c0.5,1.4,0.9,2.6,1.4,3.7l3.8,9.5h4.4V19.9
				h-4.2V25.4z"/>
			<rect x="934.1" y="19.9" class="st0" width="4.8" height="24.9"/>
			<path class="st0" d="M976.5,25.4c0,2.3,0.1,4.5,0.2,6.5l0.3,5c-0.4-1.1-0.9-2.4-1.4-3.7c-0.5-1.4-1-2.5-1.4-3.5l-3.8-9.8h-4.4
				v24.9h4.2v-5.6c0-2.5,0-4.7-0.1-6.6c-0.1-1.9-0.1-3.5-0.2-4.7c0.4,1.1,0.8,2.4,1.2,3.8c0.5,1.4,0.9,2.6,1.4,3.7l3.8,9.5h4.4V19.9
				h-4.2V25.4z"/>
			<rect x="916.7" y="14.1" class="st0" width="3.6" height="36.9"/>
			<path class="st0" d="M826.8,19.9l-5.4,24.9h4.7l1.1-5.7h4.5l1,5.7h4.7l-4.8-24.9H826.8z M827.7,35.3l0.9-5.2
				c0.1-0.8,0.3-1.7,0.4-2.7l0.4-2.9l0.5,2.9c0.1,1.1,0.3,2,0.4,2.8l0.8,5.2H827.7z"/>
			<path class="st0" d="M902.8,38c-0.2-1.3-0.6-2.4-1.1-3.2c-0.5-0.8-1.1-1.4-2-1.7c1.3-0.7,2.2-1.5,2.9-2.6c0.6-1.1,1-2.3,1-3.7
				c0-1.1-0.1-2-0.4-2.9c-0.3-0.8-0.8-1.6-1.6-2.3c-0.8-0.7-1.8-1.2-2.9-1.5c-1.1-0.3-2.4-0.4-3.7-0.4c-0.9,0-1.9,0-2.8,0.1
				c-0.9,0.1-1.7,0.2-2.5,0.4v24.5h4.8v-9.9h0.7c0.8,0,1.4,0.2,1.8,0.8c0.4,0.6,0.8,1.6,1,3.1c0.2,1.4,0.4,2.7,0.6,3.8
				c0.2,1.1,0.4,1.8,0.6,2.2h5.1c-0.2-0.5-0.5-1.4-0.8-2.7C903.4,40.8,903.1,39.4,902.8,38z M897.9,30c-0.6,0.7-1.4,1.1-2.4,1.1
				h-0.9v-7.4c0.1-0.1,0.3-0.1,0.5-0.1c0.2,0,0.4,0,0.7,0c1.1,0.1,1.8,0.4,2.3,1.1c0.5,0.7,0.7,1.5,0.7,2.6
				C898.7,28.3,898.5,29.2,897.9,30z"/>
			<polygon class="st0" points="838.6,24.3 843,24.3 843,44.7 847.9,44.7 847.9,24.3 852.3,24.3 852.3,19.9 838.6,19.9 			"/>
			<path class="st0" d="M1013.7,25.4c0,2.3,0.1,4.5,0.2,6.5l0.3,5c-0.4-1.1-0.9-2.4-1.4-3.7c-0.5-1.4-1-2.5-1.4-3.5l-3.8-9.8h-4.4
				v24.9h4.2v-5.6c0-2.5,0-4.7-0.1-6.6c-0.1-1.9-0.1-3.5-0.2-4.7c0.4,1.1,0.8,2.4,1.2,3.8c0.5,1.4,0.9,2.6,1.4,3.7l3.8,9.5h4.4V19.9
				h-4.2V25.4z"/>
			<polygon class="st0" points="878.2,33.8 883.8,33.8 883.8,29.8 878.2,29.8 878.2,24.1 884.2,24.1 884.2,19.9 873.4,19.9 
				873.4,44.7 884.6,44.7 884.6,40.5 878.2,40.5 			"/>
			<polygon class="st0" points="855.4,24.3 859.8,24.3 859.8,44.7 864.6,44.7 864.6,24.3 869,24.3 869,19.9 855.4,19.9 			"/>
			<polygon class="st0" points="991.6,33.8 997.3,33.8 997.3,29.8 991.6,29.8 991.6,24.1 997.6,24.1 997.6,19.9 986.8,19.9 
				986.8,44.7 998,44.7 998,40.5 991.6,40.5 			"/>
		</g>
		<g>
			<path class="st0" d="M782.5,30.3c-1.3-0.8-2.2-1.4-2.7-2c-0.5-0.6-0.7-1.2-0.7-1.9c0-0.7,0.2-1.3,0.8-1.8
				c0.5-0.5,1.3-0.8,2.3-0.8c0.7,0,1.3,0.1,1.8,0.3c0.5,0.2,1,0.4,1.3,0.6l0.8-4.2c-0.4-0.2-0.9-0.4-1.6-0.6
				c-0.7-0.2-1.5-0.3-2.3-0.3c-2.6,0.1-4.5,0.8-5.9,2.2c-1.3,1.4-2,3.1-2,5.1c0,1.1,0.3,2.3,1.1,3.5c0.7,1.2,1.9,2.3,3.6,3.4
				c1.1,0.7,1.9,1.3,2.4,1.9c0.5,0.6,0.8,1.3,0.8,2.2c0,0.8-0.3,1.5-0.9,2c-0.6,0.5-1.4,0.8-2.5,0.8c-0.7,0-1.4-0.1-2.2-0.3
				c-0.8-0.2-1.4-0.4-1.9-0.7L774,44c0.4,0.3,1.1,0.5,1.9,0.7c0.9,0.2,1.8,0.3,2.8,0.3c2.5,0,4.4-0.7,5.9-2.1
				c1.5-1.3,2.2-3.2,2.3-5.5c0-1.3-0.3-2.6-1-3.8C785.3,32.4,784.1,31.3,782.5,30.3z"/>
			<path class="st0" d="M578.9,30.3c-1.3-0.8-2.2-1.4-2.7-2c-0.5-0.6-0.7-1.2-0.7-1.9c0-0.7,0.2-1.3,0.8-1.8
				c0.5-0.5,1.3-0.8,2.3-0.8c0.7,0,1.3,0.1,1.8,0.3c0.5,0.2,1,0.4,1.3,0.6l0.8-4.2c-0.4-0.2-0.9-0.4-1.6-0.6
				c-0.7-0.2-1.5-0.3-2.3-0.3c-2.6,0.1-4.5,0.8-5.9,2.2c-1.3,1.4-2,3.1-2,5.1c0,1.1,0.3,2.3,1.1,3.5c0.7,1.2,1.9,2.3,3.6,3.4
				c1.1,0.7,1.9,1.3,2.4,1.9c0.5,0.6,0.8,1.3,0.8,2.2c0,0.8-0.3,1.5-0.9,2c-0.6,0.5-1.4,0.8-2.5,0.8c-0.7,0-1.4-0.1-2.2-0.3
				c-0.8-0.2-1.4-0.4-1.9-0.7l-0.7,4.2c0.4,0.3,1.1,0.5,1.9,0.7c0.9,0.2,1.8,0.3,2.8,0.3c2.5,0,4.4-0.7,5.9-2.1
				c1.5-1.3,2.2-3.2,2.3-5.5c0-1.3-0.3-2.6-1-3.8C581.7,32.4,580.5,31.3,578.9,30.3z"/>
			<path class="st0" d="M532.6,23.9c0.5,0,1,0,1.3,0.1c0.4,0.1,0.7,0.2,0.9,0.3l0.8-4.1c-0.2-0.2-0.7-0.3-1.2-0.4
				c-0.6-0.1-1.3-0.2-2.1-0.2c-1.6,0-3.2,0.4-4.7,1.3c-1.5,0.9-2.8,2.3-3.8,4.2c-1,1.9-1.5,4.4-1.5,7.5c0,2.4,0.3,4.5,1,6.3
				c0.7,1.8,1.7,3.3,3.1,4.3c1.4,1.1,3.1,1.6,5.3,1.6c0.8,0,1.6-0.1,2.2-0.2c0.6-0.1,1.1-0.3,1.5-0.4l-0.5-4.1
				c-0.3,0.1-0.7,0.2-1.1,0.3c-0.4,0.1-0.8,0.1-1.2,0.1c-1.5,0-2.7-0.6-3.7-1.9c-1-1.3-1.5-3.4-1.5-6.4c0-3,0.6-5.2,1.6-6.6
				C530,24.5,531.2,23.9,532.6,23.9z"/>
			<rect x="560.7" y="19.9" class="st0" width="4.8" height="24.9"/>
			<polygon class="st0" points="549.8,29.8 544.7,29.8 544.7,19.9 539.9,19.9 539.9,44.7 544.7,44.7 544.7,34.3 549.8,34.3 
				549.8,44.7 554.6,44.7 554.6,19.9 549.8,19.9 			"/>
			<path class="st0" d="M764.5,36c0,1.8-0.2,3.1-0.7,3.8c-0.4,0.7-1,1-1.7,1c-0.7,0-1.2-0.3-1.7-1c-0.4-0.7-0.7-2-0.7-3.7V19.9h-4.8
				v15.4c0,3.1,0.5,5.5,1.7,7.2c1.1,1.7,3,2.6,5.6,2.6c2.4,0,4.2-0.9,5.4-2.5c1.2-1.7,1.8-4.1,1.8-7.3V19.9h-4.8V36z"/>
			<polygon class="st0" points="668.4,44.7 673.3,44.7 673.3,34.5 678.9,34.5 678.9,30.5 673.3,30.5 673.3,24.1 679.2,24.1 
				679.2,19.9 668.4,19.9 			"/>
			<path class="st0" d="M654.7,38c-0.2-1.3-0.6-2.4-1.1-3.2c-0.5-0.8-1.1-1.4-2-1.7c1.3-0.7,2.2-1.5,2.9-2.6c0.6-1.1,1-2.3,1-3.7
				c0-1.1-0.1-2-0.4-2.9c-0.3-0.8-0.8-1.6-1.6-2.3c-0.8-0.7-1.8-1.2-2.9-1.5c-1.1-0.3-2.4-0.4-3.7-0.4c-0.9,0-1.9,0-2.8,0.1
				c-0.9,0.1-1.7,0.2-2.5,0.4v24.5h4.8v-9.9h0.7c0.8,0,1.4,0.2,1.8,0.8c0.4,0.6,0.8,1.6,1,3.1c0.2,1.4,0.4,2.7,0.6,3.8
				c0.2,1.1,0.4,1.8,0.6,2.2h5.1c-0.2-0.5-0.5-1.4-0.8-2.7C655.2,40.8,654.9,39.4,654.7,38z M649.7,30c-0.6,0.7-1.4,1.1-2.4,1.1
				h-0.9v-7.4c0.1-0.1,0.3-0.1,0.5-0.1c0.2,0,0.4,0,0.7,0c1.1,0.1,1.8,0.4,2.3,1.1c0.5,0.7,0.7,1.5,0.7,2.6
				C650.6,28.3,650.3,29.2,649.7,30z"/>
			<path class="st0" d="M724.9,19.9l-2,9c-0.3,1.6-0.6,3.1-0.9,4.5c-0.3,1.4-0.5,2.8-0.7,4.2c-0.3-1.4-0.6-2.8-0.9-4.2l-0.9-4.5
				l-2-9h-5.1l-1.8,24.9h4.1l0.4-8.6l0.2-4.1c0.1-1.5,0.1-2.9,0.2-4.2c0.3,1.4,0.5,2.8,0.8,4.2c0.3,1.4,0.6,2.6,0.8,3.6l2.1,8.7h3.4
				l2.2-8.9c0.2-1,0.5-2.2,0.8-3.5c0.3-1.4,0.5-2.7,0.8-4.1c0.1,1.4,0.1,2.8,0.1,4.2c0.1,1.5,0.1,2.8,0.2,4l0.4,8.7h4.3L730,19.9
				H724.9z"/>
			<rect x="684.7" y="19.9" class="st0" width="4.8" height="24.9"/>
			<polygon class="st0" points="614.3,29.8 609.2,29.8 609.2,19.9 604.4,19.9 604.4,44.7 609.2,44.7 609.2,34.3 614.3,34.3 
				614.3,44.7 619.1,44.7 619.1,19.9 614.3,19.9 			"/>
			<path class="st0" d="M740.3,19.9L735,44.7h4.7l1.1-5.7h4.5l1,5.7h4.7l-4.8-24.9H740.3z M741.2,35.3l0.9-5.2
				c0.1-0.8,0.3-1.7,0.4-2.7l0.4-2.9l0.5,2.9c0.1,1.1,0.3,2,0.4,2.8l0.8,5.2H741.2z"/>
			<polygon class="st0" points="630,33.8 635.7,33.8 635.7,29.8 630,29.8 630,24.1 636,24.1 636,19.9 625.2,19.9 625.2,44.7 
				636.4,44.7 636.4,40.5 630,40.5 			"/>
			<polygon class="st0" points="700.5,19.9 695.7,19.9 695.7,44.7 706.9,44.7 706.9,40.6 700.5,40.6 			"/>
			<polygon class="st0" points="446.3,33.8 451.9,33.8 451.9,29.8 446.3,29.8 446.3,24.1 452.3,24.1 452.3,19.9 441.5,19.9 
				441.5,44.7 452.7,44.7 452.7,40.5 446.3,40.5 			"/>
			<path class="st0" d="M255.9,30.5c-0.2,1.4-0.4,2.8-0.6,4.3c-0.2,1.5-0.4,2.9-0.5,4.4c-0.2-1.5-0.4-2.9-0.7-4.4l-0.7-4.2
				l-1.8-10.7h-5.3l5.5,24.9h5.4l5.7-24.9h-5.3L255.9,30.5z"/>
			<polygon class="st0" points="271.6,33.8 277.3,33.8 277.3,29.8 271.6,29.8 271.6,24.1 277.6,24.1 277.6,19.9 266.8,19.9 
				266.8,44.7 278,44.7 278,40.5 271.6,40.5 			"/>
			<path class="st0" d="M296.3,38c-0.2-1.3-0.6-2.4-1.1-3.2c-0.5-0.8-1.1-1.4-2-1.7c1.3-0.7,2.2-1.5,2.9-2.6c0.6-1.1,1-2.3,1-3.7
				c0-1.1-0.1-2-0.4-2.9c-0.3-0.8-0.8-1.6-1.6-2.3c-0.8-0.7-1.8-1.2-2.9-1.5c-1.1-0.3-2.4-0.4-3.7-0.4c-0.9,0-1.9,0-2.8,0.1
				c-0.9,0.1-1.7,0.2-2.5,0.4v24.5h4.8v-9.9h0.7c0.8,0,1.4,0.2,1.8,0.8c0.4,0.6,0.8,1.6,1,3.1c0.2,1.4,0.4,2.7,0.6,3.8
				c0.2,1.1,0.4,1.8,0.6,2.2h5.1c-0.2-0.5-0.5-1.4-0.8-2.7C296.8,40.8,296.5,39.4,296.3,38z M291.3,30c-0.6,0.7-1.4,1.1-2.4,1.1H288
				v-7.4c0.1-0.1,0.3-0.1,0.5-0.1c0.2,0,0.4,0,0.7,0c1.1,0.1,1.8,0.4,2.3,1.1c0.5,0.7,0.7,1.5,0.7,2.6
				C292.2,28.3,291.9,29.2,291.3,30z"/>
			<path class="st0" d="M325.5,19.9l-5.4,24.9h4.7l1.1-5.7h4.5l1,5.7h4.7l-4.8-24.9H325.5z M326.4,35.3l0.9-5.2
				c0.1-0.8,0.3-1.7,0.4-2.7l0.4-2.9l0.5,2.9c0.1,1.1,0.3,2,0.4,2.8l0.8,5.2H326.4z"/>
			<path class="st0" d="M312.5,31.6c1.2-0.7,2.1-1.5,2.7-2.4c0.6-1,0.9-2,0.9-3.1c0-0.9-0.1-1.7-0.4-2.5c-0.3-0.8-0.8-1.5-1.4-2
				c-0.9-0.7-1.9-1.2-2.9-1.4c-1.1-0.2-2.2-0.4-3.4-0.3c-1,0-2,0-3,0.1c-0.9,0.1-1.8,0.2-2.5,0.4v24.4c0.6,0.1,1.2,0.1,2,0.2
				c0.8,0,1.6,0.1,2.5,0.1c2.1,0,3.8-0.2,5.1-0.6c1.3-0.4,2.3-1,3.1-1.9c0.6-0.6,1.1-1.3,1.4-2.1c0.3-0.8,0.5-1.7,0.5-2.7
				c0-1.4-0.4-2.6-1.1-3.7C315,32.8,313.9,32,312.5,31.6z M307.2,23.5c0.1-0.1,0.3-0.1,0.5-0.1c0.2,0,0.5,0,0.7,0
				c1,0,1.7,0.3,2.1,0.9c0.5,0.6,0.7,1.4,0.7,2.3c0,1-0.3,1.8-0.9,2.5c-0.6,0.6-1.3,1-2.2,1h-1V23.5z M310.8,40.3
				c-0.7,0.6-1.5,0.9-2.5,0.9l-0.6,0c-0.2,0-0.3,0-0.5-0.1v-7.5h1c1,0,1.8,0.3,2.5,1c0.7,0.6,1.1,1.6,1.1,2.8
				C311.8,38.7,311.5,39.7,310.8,40.3z"/>
			<path class="st0" d="M392.5,18.4L392.5,18.4c0.6,0,1.2-0.2,1.6-0.7c0.4-0.4,0.6-1,0.6-1.7c0-0.7-0.2-1.2-0.6-1.6
				c-0.4-0.4-0.9-0.7-1.5-0.7c-0.6,0-1.1,0.2-1.5,0.7c-0.4,0.4-0.6,1-0.7,1.6c0,0.7,0.2,1.2,0.6,1.7
				C391.4,18.1,391.9,18.3,392.5,18.4z"/>
			<path class="st0" d="M399.3,18.4L399.3,18.4c0.6,0,1.2-0.2,1.6-0.7c0.4-0.4,0.6-1,0.6-1.7c0-0.7-0.2-1.2-0.6-1.6
				c-0.4-0.4-0.9-0.7-1.5-0.7c-0.6,0-1.1,0.2-1.5,0.7c-0.4,0.4-0.6,1-0.7,1.6c0,0.7,0.2,1.2,0.6,1.7
				C398.2,18.1,398.7,18.3,399.3,18.4z"/>
			<rect x="512.5" y="19.9" class="st0" width="4.8" height="24.9"/>
			<path class="st0" d="M470.9,38c-0.2-1.3-0.6-2.4-1.1-3.2c-0.5-0.8-1.1-1.4-2-1.7c1.3-0.7,2.2-1.5,2.9-2.6c0.6-1.1,1-2.3,1-3.7
				c0-1.1-0.1-2-0.4-2.9s-0.8-1.6-1.6-2.3c-0.8-0.7-1.8-1.2-2.9-1.5c-1.1-0.3-2.4-0.4-3.7-0.4c-0.9,0-1.9,0-2.8,0.1
				c-0.9,0.1-1.7,0.2-2.5,0.4v24.5h4.8v-9.9h0.7c0.8,0,1.4,0.2,1.8,0.8c0.4,0.6,0.8,1.6,1,3.1c0.2,1.4,0.4,2.7,0.6,3.8
				c0.2,1.1,0.4,1.8,0.6,2.2h5.1c-0.2-0.5-0.5-1.4-0.8-2.7C471.4,40.8,471.2,39.4,470.9,38z M466,30c-0.6,0.7-1.4,1.1-2.4,1.1h-0.9
				v-7.4c0.1-0.1,0.3-0.1,0.5-0.1c0.2,0,0.4,0,0.7,0c1.1,0.1,1.8,0.4,2.3,1.1c0.5,0.7,0.7,1.5,0.7,2.6C466.8,28.3,466.5,29.2,466,30
				z"/>
			<path class="st0" d="M798.8,30.3c-1.3-0.8-2.2-1.4-2.7-2c-0.5-0.6-0.7-1.2-0.7-1.9c0-0.7,0.3-1.3,0.8-1.8
				c0.5-0.5,1.3-0.8,2.3-0.8c0.7,0,1.3,0.1,1.8,0.3c0.5,0.2,1,0.4,1.3,0.6l0.8-4.2c-0.4-0.2-0.9-0.4-1.6-0.6
				c-0.7-0.2-1.5-0.3-2.3-0.3c-2.6,0.1-4.5,0.8-5.9,2.2c-1.3,1.4-2,3.1-2,5.1c0,1.1,0.3,2.3,1.1,3.5c0.7,1.2,1.9,2.3,3.6,3.4
				c1.1,0.7,1.9,1.3,2.4,1.9c0.5,0.6,0.8,1.3,0.8,2.2c0,0.8-0.3,1.5-0.9,2c-0.6,0.5-1.4,0.8-2.5,0.8c-0.7,0-1.4-0.1-2.2-0.3
				c-0.8-0.2-1.4-0.4-1.9-0.7l-0.7,4.2c0.4,0.3,1.1,0.5,1.9,0.7c0.9,0.2,1.8,0.3,2.8,0.3c2.5,0,4.4-0.7,5.9-2.1
				c1.5-1.3,2.2-3.2,2.3-5.5c0-1.3-0.3-2.6-1-3.8C801.6,32.4,800.5,31.3,798.8,30.3z"/>
			<path class="st0" d="M490.1,38c-0.2-1.3-0.6-2.4-1.1-3.2c-0.5-0.8-1.1-1.4-2-1.7c1.3-0.7,2.2-1.5,2.9-2.6c0.6-1.1,1-2.3,1-3.7
				c0-1.1-0.1-2-0.4-2.9c-0.3-0.8-0.8-1.6-1.6-2.3c-0.8-0.7-1.8-1.2-2.9-1.5c-1.1-0.3-2.4-0.4-3.7-0.4c-0.9,0-1.9,0-2.8,0.1
				c-0.9,0.1-1.7,0.2-2.5,0.4v24.5h4.8v-9.9h0.7c0.8,0,1.4,0.2,1.8,0.8c0.4,0.6,0.8,1.6,1,3.1c0.2,1.4,0.4,2.7,0.6,3.8
				s0.4,1.8,0.6,2.2h5.1c-0.2-0.5-0.5-1.4-0.8-2.7C490.6,40.8,490.3,39.4,490.1,38z M485.1,30c-0.6,0.7-1.4,1.1-2.4,1.1h-0.9v-7.4
				c0.1-0.1,0.3-0.1,0.5-0.1c0.2,0,0.4,0,0.7,0c1.1,0.1,1.8,0.4,2.3,1.1c0.5,0.7,0.7,1.5,0.7,2.6C486,28.3,485.7,29.2,485.1,30z"/>
			<polygon class="st0" points="501,33.8 506.6,33.8 506.6,29.8 501,29.8 501,24.1 507,24.1 507,19.9 496.1,19.9 496.1,44.7 
				507.4,44.7 507.4,40.5 501,40.5 			"/>
			<polygon class="st0" points="423.5,24.3 427.8,24.3 427.8,44.7 432.7,44.7 432.7,24.3 437.1,24.3 437.1,19.9 423.5,19.9 			"/>
			<path class="st0" d="M351.3,25.4c0,2.3,0.1,4.5,0.2,6.5l0.3,5c-0.4-1.1-0.9-2.4-1.4-3.7c-0.5-1.4-0.9-2.5-1.4-3.5l-3.8-9.8h-4.4
				v24.9h4.2v-5.6c0-2.5,0-4.7-0.1-6.6c-0.1-1.9-0.1-3.5-0.2-4.7c0.4,1.1,0.8,2.4,1.3,3.8c0.5,1.4,0.9,2.6,1.4,3.7l3.8,9.5h4.4V19.9
				h-4.2V25.4z"/>
			<path class="st0" d="M400.9,21.5c-1.1-1.2-2.7-1.9-4.6-1.9c-1.8,0-3.4,0.6-4.6,1.8c-1.2,1.2-2.1,2.7-2.7,4.6
				c-0.6,1.9-0.9,4-0.9,6.3c0,2.3,0.3,4.4,0.8,6.4c0.5,1.9,1.4,3.5,2.5,4.6c1.2,1.2,2.7,1.8,4.6,1.8h0c2.4,0,4.3-1,5.8-3.1
				c1.5-2.1,2.2-5.5,2.2-10.1c0-1.9-0.2-3.8-0.7-5.7C402.8,24.3,402,22.7,400.9,21.5z M398.2,38.4c-0.4,1.6-1.2,2.4-2.2,2.5h0
				c-1.1-0.1-1.8-0.9-2.3-2.5c-0.5-1.6-0.7-3.6-0.7-6.2c0-1.5,0.1-2.9,0.3-4.2c0.2-1.3,0.5-2.3,1-3.1c0.4-0.8,1-1.2,1.7-1.2
				c0.7,0,1.3,0.4,1.7,1.2c0.4,0.8,0.7,1.8,0.9,3c0.2,1.3,0.3,2.6,0.3,4.1C398.9,34.7,398.7,36.8,398.2,38.4z"/>
			<path class="st0" d="M373.4,22c-0.8-0.7-1.7-1.3-2.9-1.7c-1.1-0.4-2.5-0.6-4-0.6c-1,0-1.9,0-2.7,0.1c-0.8,0.1-1.6,0.2-2.2,0.4
				v24.4c0.5,0.1,1.1,0.1,1.8,0.2c0.7,0.1,1.4,0.1,2.2,0.1c1.7,0,3.2-0.2,4.4-0.6c1.2-0.4,2.3-1,3.1-1.8c1.1-1,1.9-2.3,2.5-4.1
				c0.6-1.8,0.9-3.9,0.9-6.4c0-2.4-0.3-4.4-0.8-6.1C375.3,24.2,374.5,22.9,373.4,22z M370.4,39c-0.8,1.4-1.9,2.1-3.1,2l-0.4,0
				c-0.2,0-0.3,0-0.4-0.1V23.7c0.2-0.1,0.3-0.1,0.5-0.1l0.5,0c1.5,0,2.5,0.8,3.2,2.2c0.7,1.4,1,3.4,1,6
				C371.6,35.2,371.2,37.6,370.4,39z"/>
			<path class="st0" d="M416,30.3c-1.3-0.8-2.2-1.4-2.7-2c-0.5-0.6-0.7-1.2-0.7-1.9c0-0.7,0.3-1.3,0.8-1.8c0.5-0.5,1.3-0.8,2.3-0.8
				c0.7,0,1.3,0.1,1.8,0.3c0.5,0.2,1,0.4,1.3,0.6l0.8-4.2c-0.4-0.2-0.9-0.4-1.6-0.6c-0.7-0.2-1.5-0.3-2.3-0.3
				c-2.6,0.1-4.5,0.8-5.9,2.2c-1.3,1.4-2,3.1-2,5.1c0,1.1,0.3,2.3,1.1,3.5c0.7,1.2,1.9,2.3,3.6,3.4c1.1,0.7,1.9,1.3,2.4,1.9
				c0.5,0.6,0.8,1.3,0.8,2.2c0,0.8-0.3,1.5-0.9,2c-0.6,0.5-1.4,0.8-2.5,0.8c-0.7,0-1.4-0.1-2.2-0.3c-0.8-0.2-1.4-0.4-1.9-0.7
				l-0.7,4.2c0.4,0.3,1.1,0.5,1.9,0.7c0.9,0.2,1.8,0.3,2.8,0.3c2.5,0,4.4-0.7,5.9-2.1c1.5-1.3,2.2-3.2,2.3-5.5c0-1.3-0.3-2.6-1-3.8
				C418.8,32.4,417.6,31.3,416,30.3z"/>
			<path class="st0" d="M597.1,23.9c0.5,0,1,0,1.3,0.1c0.4,0.1,0.7,0.2,0.9,0.3l0.8-4.1c-0.2-0.2-0.7-0.3-1.2-0.4
				c-0.6-0.1-1.3-0.2-2.1-0.2c-1.6,0-3.2,0.4-4.7,1.3c-1.5,0.9-2.8,2.3-3.8,4.2c-1,1.9-1.5,4.4-1.5,7.5c0,2.4,0.3,4.5,1,6.3
				c0.7,1.8,1.7,3.3,3.1,4.3c1.4,1.1,3.1,1.6,5.3,1.6c0.8,0,1.6-0.1,2.2-0.2c0.6-0.1,1.1-0.3,1.5-0.4l-0.5-4.1
				c-0.3,0.1-0.7,0.2-1.1,0.3c-0.4,0.1-0.8,0.1-1.2,0.1c-1.5,0-2.7-0.6-3.7-1.9s-1.5-3.4-1.5-6.4c0-3,0.6-5.2,1.6-6.6
				C594.5,24.5,595.7,23.9,597.1,23.9z"/>
			<polygon class="st0" points="806.3,24.3 810.7,24.3 810.7,44.7 815.5,44.7 815.5,24.3 820,24.3 820,19.9 806.3,19.9 			"/>
			<path class="st0" d="M955.6,25.4c0,2.3,0.1,4.5,0.2,6.5l0.3,5c-0.4-1.1-0.9-2.4-1.4-3.7c-0.5-1.4-1-2.5-1.4-3.5l-3.8-9.8h-4.4
				v24.9h4.2v-5.6c0-2.5,0-4.7-0.1-6.6c-0.1-1.9-0.1-3.5-0.2-4.7c0.4,1.1,0.8,2.4,1.2,3.8c0.5,1.4,0.9,2.6,1.4,3.7l3.8,9.5h4.4V19.9
				h-4.2V25.4z"/>
			<rect x="934.1" y="19.9" class="st0" width="4.8" height="24.9"/>
			<path class="st0" d="M976.5,25.4c0,2.3,0.1,4.5,0.2,6.5l0.3,5c-0.4-1.1-0.9-2.4-1.4-3.7c-0.5-1.4-1-2.5-1.4-3.5l-3.8-9.8h-4.4
				v24.9h4.2v-5.6c0-2.5,0-4.7-0.1-6.6c-0.1-1.9-0.1-3.5-0.2-4.7c0.4,1.1,0.8,2.4,1.2,3.8c0.5,1.4,0.9,2.6,1.4,3.7l3.8,9.5h4.4V19.9
				h-4.2V25.4z"/>
			<rect x="916.7" y="14.1" class="st0" width="3.6" height="36.9"/>
			<path class="st0" d="M826.8,19.9l-5.4,24.9h4.7l1.1-5.7h4.5l1,5.7h4.7l-4.8-24.9H826.8z M827.7,35.3l0.9-5.2
				c0.1-0.8,0.3-1.7,0.4-2.7l0.4-2.9l0.5,2.9c0.1,1.1,0.3,2,0.4,2.8l0.8,5.2H827.7z"/>
			<path class="st0" d="M902.8,38c-0.2-1.3-0.6-2.4-1.1-3.2c-0.5-0.8-1.1-1.4-2-1.7c1.3-0.7,2.2-1.5,2.9-2.6c0.6-1.1,1-2.3,1-3.7
				c0-1.1-0.1-2-0.4-2.9c-0.3-0.8-0.8-1.6-1.6-2.3c-0.8-0.7-1.8-1.2-2.9-1.5c-1.1-0.3-2.4-0.4-3.7-0.4c-0.9,0-1.9,0-2.8,0.1
				c-0.9,0.1-1.7,0.2-2.5,0.4v24.5h4.8v-9.9h0.7c0.8,0,1.4,0.2,1.8,0.8c0.4,0.6,0.8,1.6,1,3.1c0.2,1.4,0.4,2.7,0.6,3.8
				c0.2,1.1,0.4,1.8,0.6,2.2h5.1c-0.2-0.5-0.5-1.4-0.8-2.7C903.4,40.8,903.1,39.4,902.8,38z M897.9,30c-0.6,0.7-1.4,1.1-2.4,1.1
				h-0.9v-7.4c0.1-0.1,0.3-0.1,0.5-0.1c0.2,0,0.4,0,0.7,0c1.1,0.1,1.8,0.4,2.3,1.1c0.5,0.7,0.7,1.5,0.7,2.6
				C898.7,28.3,898.5,29.2,897.9,30z"/>
			<polygon class="st0" points="838.6,24.3 843,24.3 843,44.7 847.9,44.7 847.9,24.3 852.3,24.3 852.3,19.9 838.6,19.9 			"/>
			<path class="st0" d="M1013.7,25.4c0,2.3,0.1,4.5,0.2,6.5l0.3,5c-0.4-1.1-0.9-2.4-1.4-3.7c-0.5-1.4-1-2.5-1.4-3.5l-3.8-9.8h-4.4
				v24.9h4.2v-5.6c0-2.5,0-4.7-0.1-6.6c-0.1-1.9-0.1-3.5-0.2-4.7c0.4,1.1,0.8,2.4,1.2,3.8c0.5,1.4,0.9,2.6,1.4,3.7l3.8,9.5h4.4V19.9
				h-4.2V25.4z"/>
			<polygon class="st0" points="878.2,33.8 883.8,33.8 883.8,29.8 878.2,29.8 878.2,24.1 884.2,24.1 884.2,19.9 873.4,19.9 
				873.4,44.7 884.6,44.7 884.6,40.5 878.2,40.5 			"/>
			<polygon class="st0" points="855.4,24.3 859.8,24.3 859.8,44.7 864.6,44.7 864.6,24.3 869,24.3 869,19.9 855.4,19.9 			"/>
			<polygon class="st0" points="991.6,33.8 997.3,33.8 997.3,29.8 991.6,29.8 991.6,24.1 997.6,24.1 997.6,19.9 986.8,19.9 
				986.8,44.7 998,44.7 998,40.5 991.6,40.5 			"/>
		</g>
	</g>
	<g>
		<g>
			<path class="st0" d="M651.5,61.2c-1.9,0-3.8,0.4-5.7,1.1c-1.9,0.7-3.7,1.9-5.3,3.5c-2.6,2.7-4.5,6-5.7,9.7
				c-1.2,3.7-1.8,7.4-1.7,11c0,1.8,0.2,3.6,0.6,5.3c0.4,1.7,1,3.2,1.9,4.4c0.9,1.2,2,2.2,3.3,2.9c1.4,0.7,3,1.1,5,1.1
				c1.2,0,2.3-0.1,3.4-0.3c1-0.2,2-0.5,2.9-0.9l3.6-19H645l-0.7,3.5h4.9l-2.3,12.7c-0.4,0.1-0.8,0.3-1.2,0.3
				c-0.5,0.1-0.9,0.1-1.5,0.1c-2.4,0-4.2-1-5.2-2.8c-1.1-1.9-1.6-4.3-1.5-7.5c0-2.2,0.3-4.5,0.8-6.7c0.5-2.3,1.2-4.3,2.1-6.3
				c0.9-1.9,2-3.5,3.2-4.8c1.2-1.2,2.5-2.1,3.7-2.6c1.2-0.5,2.6-0.8,3.9-0.8c0.8,0,1.5,0.1,2.2,0.2c0.6,0.1,1.2,0.3,1.6,0.5l1.4-3.6
				c-0.5-0.2-1.1-0.4-1.9-0.5S652.7,61.3,651.5,61.2z"/>
			<path class="st0" d="M677.7,80.2c-0.4,2.3-0.8,4.5-1.1,6.7l-0.8,6.4c-0.3-1.7-0.6-3.5-0.9-5.3l-1-5.7l-3.9-20.7H666l-7.3,38.3
				h3.6l3.5-18.5c0.4-2.3,0.8-4.6,1.2-6.9c0.4-2.3,0.7-4.5,0.9-6.5c0.3,2.2,0.6,4.3,0.9,6.2c0.3,1.9,0.7,3.8,1.1,5.7l4,19.9h3.6
				l7.3-38.3h-3.6L677.7,80.2z"/>
			<path class="st0" d="M749.7,61.2c-3.3,0.1-5.9,1.1-7.9,3.1c-1.9,2-2.9,4.5-3,7.6c0,1.8,0.5,3.5,1.3,5.1c0.9,1.6,2,3,3.4,4.4
				c1.3,1.2,2.3,2.4,2.9,3.6c0.7,1.2,1,2.5,1,4c0,2.1-0.6,3.8-1.8,5.2c-1.2,1.4-2.9,2.1-5.2,2.2c-1,0-2-0.1-2.9-0.4
				c-0.9-0.3-1.6-0.6-2.2-1l-1.2,3.6c0.4,0.4,1.2,0.7,2.3,1c1.1,0.3,2.4,0.5,3.8,0.5c3.6-0.1,6.4-1.2,8.4-3.4c2-2.2,3-5,3-8.6
				c0-1.9-0.5-3.6-1.3-5.2c-0.9-1.6-2-3.1-3.3-4.3c-1.3-1.2-2.3-2.3-3-3.5c-0.7-1.2-1.1-2.4-1.1-3.8c0-1.9,0.6-3.4,1.7-4.6
				c1.1-1.2,2.6-1.8,4.5-1.9c0.9,0,1.7,0.1,2.4,0.3c0.7,0.2,1.3,0.4,1.8,0.8l1.3-3.5c-0.4-0.3-1.1-0.6-2-0.9
				C751.9,61.4,750.9,61.3,749.7,61.2z"/>
			<path class="st0" d="M730,63.8c-0.7-0.8-1.7-1.4-2.9-1.8c-1.2-0.4-2.5-0.6-4-0.6c-1,0-2,0.1-3.1,0.2c-1,0.1-2,0.2-3,0.4
				l-7.2,37.9h4L717,83h1.8c1.7,0,2.9,0.5,3.7,1.7c0.7,1.1,1.1,3,1.2,5.7l0.2,6.1c0.1,1.7,0.2,2.8,0.3,3.4h4.1
				c-0.1-0.6-0.2-1.7-0.4-3.3c-0.1-1.6-0.2-3.8-0.2-6.4c0-2.5-0.3-4.4-0.9-5.8c-0.6-1.4-1.5-2.3-2.6-2.8c2.4-1,4.3-2.4,5.7-4.5
				c1.4-2.1,2.2-4.6,2.2-7.3c0-1.2-0.2-2.3-0.5-3.3C731.2,65.4,730.7,64.5,730,63.8z M725.5,76.9c-1.5,1.8-3.4,2.7-5.8,2.8h-2
				l2.7-14.7c0.3-0.1,0.7-0.1,1.1-0.2c0.4,0,0.8-0.1,1.3-0.1c1.8,0,3.1,0.6,3.9,1.5c0.8,1,1.2,2.2,1.1,3.8
				C727.8,72.8,727,75.1,725.5,76.9z"/>
			<path class="st0" d="M566.9,65.2c-0.8-1.1-2-2.1-3.4-2.7c-1.4-0.7-3.2-1-5.2-1c-1,0-2,0.1-3,0.2c-1,0.1-1.9,0.2-2.8,0.4
				l-7.1,37.5c0.7,0.2,1.6,0.3,2.6,0.4c1,0.1,2,0.1,3.1,0.1c2,0,3.8-0.3,5.6-0.8c1.8-0.6,3.4-1.6,5-3c1.4-1.3,2.7-3.1,3.8-5.3
				c1.2-2.2,2.1-4.8,2.8-7.6c0.7-2.8,1-5.7,1.1-8.7c0-1.9-0.1-3.7-0.5-5.2C568.5,67.7,567.8,66.4,566.9,65.2z M563.8,84.3
				c-0.9,3.2-2,5.7-3.4,7.6c-1.2,1.6-2.5,2.8-3.8,3.5c-1.4,0.7-2.8,1.1-4.2,1.1c-0.4,0-0.8,0-1.2-0.1c-0.4,0-0.7-0.1-1-0.2l6-31.2
				c0.2-0.1,0.5-0.1,0.9-0.1c0.3,0,0.8,0,1.3,0c2.4,0,4.1,0.9,5.3,2.5c1.1,1.6,1.7,3.9,1.7,6.9C565.2,77.8,564.7,81.1,563.8,84.3z"
				/>
			<path class="st0" d="M527.5,83.7c-0.6,1.5-1.2,2.9-1.8,4.4c-0.6,1.5-1.1,2.9-1.7,4.5c-0.1-1.5-0.2-3-0.2-4.5
				c0-1.4-0.1-2.9-0.2-4.4l-1.4-22.2h-4.5l-9.4,38.3h3.7l5.1-21.8c0.4-1.6,0.7-3.3,1-4.9l1.1-5.4c0.1,1.9,0.2,3.8,0.2,5.4
				c0,1.7,0.1,3.3,0.2,4.9l1.4,21.5h2.7l9.4-21.1c0.7-1.5,1.4-3.2,2.1-5.1c0.7-1.8,1.4-3.7,2.1-5.7l-0.7,5.4
				c-0.3,1.7-0.5,3.3-0.8,4.9l-3.1,21.8h3.7l5.1-38.3h-4.7L527.5,83.7z"/>
			<polygon class="st0" points="617.8,99.9 621.9,99.9 629.2,61.6 625.1,61.6 			"/>
			<path class="st0" d="M782.5,61.6l-15.8,38.3h4.1l4.6-11.6h8.6l0.3,11.6h4L787,61.6H782.5z M776.6,85.1l3.9-9.9
				c0.5-1.3,1-2.7,1.6-4.3c0.5-1.6,1.1-3.1,1.5-4.6l0.2,4.5c0,1.5,0,3,0,4.4l0.2,9.9H776.6z"/>
			<path class="st0" d="M610.1,61.2c-3.3,0.1-5.9,1.1-7.9,3.1c-1.9,2-2.9,4.5-3,7.6c0,1.8,0.5,3.5,1.3,5.1c0.9,1.6,2,3,3.4,4.4
				c1.3,1.2,2.3,2.4,2.9,3.6c0.7,1.2,1,2.5,1,4c0,2.1-0.6,3.8-1.8,5.2c-1.2,1.4-2.9,2.1-5.2,2.2c-1,0-2-0.1-2.9-0.4
				c-0.9-0.3-1.6-0.6-2.2-1l-1.2,3.6c0.4,0.4,1.2,0.7,2.3,1c1.1,0.3,2.4,0.5,3.8,0.5c3.6-0.1,6.4-1.2,8.4-3.4c2-2.2,3-5,3-8.6
				c0-1.9-0.5-3.6-1.3-5.2c-0.9-1.6-2-3.1-3.3-4.3c-1.3-1.2-2.3-2.3-3-3.5c-0.7-1.2-1.1-2.4-1.1-3.8c0-1.9,0.6-3.4,1.7-4.6
				c1.1-1.2,2.6-1.8,4.5-1.9c0.9,0,1.7,0.1,2.4,0.3c0.7,0.2,1.3,0.4,1.8,0.8l1.3-3.5c-0.4-0.3-1.1-0.6-2-0.9
				C612.3,61.4,611.3,61.3,610.1,61.2z"/>
			<polygon class="st0" points="573.1,99.9 587.9,99.9 588.6,96.2 577.9,96.2 580.6,81.6 590.1,81.6 590.7,78.1 581.3,78.1 
				583.8,65.2 593.8,65.2 594.5,61.6 580.4,61.6 			"/>
			<path class="st0" d="M1014.2,61.6l-3.5,18.6c-0.4,2.3-0.8,4.5-1.1,6.7l-0.8,6.4c-0.3-1.7-0.6-3.5-0.9-5.3l-1-5.7l-3.9-20.7H999
				l-7.3,38.3h3.6l3.5-18.5c0.4-2.3,0.8-4.6,1.2-6.9c0.4-2.3,0.7-4.5,0.9-6.5c0.3,2.2,0.6,4.3,0.9,6.2c0.3,1.9,0.7,3.8,1.1,5.7
				l4,19.9h3.6l7.3-38.3H1014.2z"/>
			<polygon class="st0" points="950.1,99.9 954.2,99.9 961.4,61.6 957.3,61.6 			"/>
			<polygon class="st0" points="932.4,61.6 931.6,65.4 938.6,65.4 932,99.9 936.1,99.9 942.7,65.4 949.5,65.4 950.3,61.6 			"/>
			<path class="st0" d="M917.9,61.6L902,99.9h4.1l4.6-11.6h8.6l0.3,11.6h4l-1.3-38.3H917.9z M911.9,85.1l3.9-9.9
				c0.5-1.3,1.1-2.7,1.6-4.3c0.5-1.6,1.1-3.1,1.5-4.6l0.2,4.5c0,1.5,0,3,0,4.4l0.2,9.9H911.9z"/>
			<path class="st0" d="M985.5,63.3c-1.1-1.4-2.9-2.1-5.3-2.1c-1.3,0-2.5,0.3-3.7,0.8c-1.2,0.5-2.3,1.3-3.4,2.3
				c-1.8,1.8-3.2,4.1-4.4,6.9c-1.2,2.8-2.1,5.7-2.7,8.8c-0.6,3-0.9,5.8-0.9,8.4c0,1.4,0.1,3.1,0.5,4.9c0.4,1.9,1.1,3.5,2.3,4.9
				c1.2,1.4,3,2.1,5.4,2.2h0.1c1.3,0,2.5-0.3,3.7-0.8c1.2-0.5,2.3-1.3,3.4-2.4c1.7-1.7,3.1-4,4.2-6.7c1.1-2.8,2-5.7,2.6-8.7
				c0.6-3,0.9-5.8,0.9-8.2c0-1.7-0.1-3.5-0.4-5.4C987.3,66.2,986.6,64.6,985.5,63.3z M983.5,78.2c-0.3,1.9-0.6,3.9-1.2,6.1
				c-0.5,2.2-1.2,4.2-2,6.1c-0.8,1.9-1.8,3.5-2.9,4.7c-0.5,0.5-1.1,0.9-1.7,1.2c-0.6,0.3-1.2,0.4-1.9,0.4h0c-1.4,0-2.4-0.6-3-1.5
				c-0.6-1-1-2.1-1.2-3.5c-0.2-1.3-0.2-2.6-0.2-3.7c0-2,0.3-4.4,0.8-7.1c0.5-2.8,1.2-5.5,2.2-8.1c1-2.6,2.2-4.7,3.6-6.2
				c0.5-0.5,1.1-1,1.7-1.3c0.6-0.3,1.2-0.4,1.9-0.4c1.9,0.1,3.2,1,3.7,2.7c0.5,1.7,0.7,3.8,0.6,6.2
				C983.9,74.8,983.7,76.3,983.5,78.2z"/>
			<polygon class="st0" points="499.4,61.6 495.2,61.6 488,99.9 502.6,99.9 503.3,96.2 492.8,96.2 			"/>
			<path class="st0" d="M831.5,61.2c-3.3,0.1-5.9,1.1-7.9,3.1c-1.9,2-2.9,4.5-3,7.6c0,1.8,0.5,3.5,1.3,5.1c0.8,1.6,2,3,3.4,4.4
				c1.3,1.2,2.3,2.4,3,3.6c0.7,1.2,1,2.5,1,4c0,2.1-0.6,3.8-1.8,5.2c-1.2,1.4-2.9,2.1-5.2,2.2c-1,0-2-0.1-2.9-0.4
				c-0.9-0.3-1.6-0.6-2.2-1l-1.2,3.6c0.4,0.4,1.2,0.7,2.3,1c1.1,0.3,2.4,0.5,3.8,0.5c3.6-0.1,6.4-1.2,8.4-3.4c2-2.2,3-5,3-8.6
				c0-1.9-0.5-3.6-1.3-5.2c-0.9-1.6-2-3.1-3.3-4.3c-1.3-1.2-2.3-2.3-3-3.5c-0.7-1.2-1-2.4-1.1-3.8c0-1.9,0.6-3.4,1.7-4.6
				c1.1-1.2,2.6-1.8,4.5-1.9c0.9,0,1.7,0.1,2.4,0.3c0.7,0.2,1.3,0.4,1.8,0.8l1.2-3.5c-0.4-0.3-1.1-0.6-2-0.9
				C833.7,61.4,832.7,61.3,831.5,61.2z"/>
			<path class="st0" d="M809.4,61.2c-3.3,0.1-5.9,1.1-7.9,3.1c-1.9,2-2.9,4.5-3,7.6c0,1.8,0.5,3.5,1.3,5.1c0.9,1.6,2,3,3.4,4.4
				c1.3,1.2,2.3,2.4,3,3.6c0.7,1.2,1,2.5,1,4c0,2.1-0.6,3.8-1.8,5.2c-1.2,1.4-2.9,2.1-5.2,2.2c-1,0-2-0.1-2.9-0.4
				c-0.9-0.3-1.6-0.6-2.2-1l-1.2,3.6c0.4,0.4,1.2,0.7,2.3,1c1.1,0.3,2.4,0.5,3.8,0.5c3.6-0.1,6.4-1.2,8.4-3.4c2-2.2,3-5,3-8.6
				c0-1.9-0.5-3.6-1.3-5.2c-0.9-1.6-2-3.1-3.3-4.3c-1.3-1.2-2.3-2.3-3-3.5c-0.7-1.2-1-2.4-1.1-3.8c0-1.9,0.6-3.4,1.7-4.6
				c1.1-1.2,2.6-1.8,4.5-1.9c0.9,0,1.7,0.1,2.4,0.3c0.7,0.2,1.3,0.4,1.8,0.8l1.3-3.5c-0.4-0.3-1.1-0.6-2-0.9
				C811.6,61.4,810.5,61.3,809.4,61.2z"/>
			<path class="st0" d="M860.8,63.3c-1.1-1.4-2.9-2.1-5.3-2.1c-1.3,0-2.5,0.3-3.7,0.8c-1.2,0.5-2.3,1.3-3.4,2.3
				c-1.8,1.8-3.2,4.1-4.4,6.9c-1.2,2.8-2.1,5.7-2.7,8.8c-0.6,3-0.9,5.8-0.9,8.4c0,1.4,0.1,3.1,0.5,4.9c0.4,1.9,1.1,3.5,2.3,4.9
				c1.2,1.4,3,2.1,5.4,2.2h0.1c1.3,0,2.5-0.3,3.7-0.8c1.2-0.5,2.3-1.3,3.4-2.4c1.7-1.7,3.1-4,4.2-6.7c1.1-2.8,2-5.7,2.6-8.7
				c0.6-3,0.9-5.8,0.9-8.2c0-1.7-0.1-3.5-0.4-5.4C862.7,66.2,862,64.6,860.8,63.3z M858.8,78.2c-0.3,1.9-0.6,3.9-1.2,6.1
				c-0.5,2.2-1.2,4.2-2,6.1c-0.8,1.9-1.8,3.5-2.9,4.7c-0.5,0.5-1.1,0.9-1.7,1.2c-0.6,0.3-1.2,0.4-1.9,0.4h-0.1c-1.4,0-2.4-0.6-3-1.5
				c-0.6-1-1-2.1-1.2-3.5c-0.2-1.3-0.2-2.6-0.2-3.7c0-2,0.3-4.4,0.8-7.1c0.5-2.8,1.3-5.5,2.2-8.1c1-2.6,2.2-4.7,3.6-6.2
				c0.5-0.5,1.1-1,1.7-1.3c0.6-0.3,1.2-0.4,1.9-0.4c1.9,0.1,3.2,1,3.7,2.7c0.5,1.7,0.7,3.8,0.6,6.2
				C859.2,74.8,859.1,76.3,858.8,78.2z"/>
			<path class="st0" d="M885.9,61.2c-1.7,0-3.4,0.3-5.2,1.1c-1.8,0.7-3.5,1.9-5.1,3.5c-2.5,2.7-4.4,5.9-5.5,9.7
				c-1.2,3.8-1.7,7.6-1.7,11.4c0,2.1,0.2,4.2,0.8,6.2c0.6,2,1.6,3.7,3,5c1.4,1.3,3.5,2,6.1,2.1c1.1,0,2-0.1,2.9-0.2
				c0.9-0.1,1.6-0.4,2.2-0.7l-0.2-3.6c-0.4,0.2-1,0.4-1.7,0.5c-0.7,0.1-1.4,0.2-2.2,0.2c-2.5-0.1-4.2-1-5.1-3
				c-0.9-1.9-1.4-4.5-1.4-7.7c0-3.3,0.5-6.5,1.5-9.5c1-3,2.4-5.6,4.1-7.7c0.9-1.1,2-2,3.2-2.6c1.2-0.6,2.5-0.9,3.8-0.9
				c0.6,0,1.2,0,1.7,0.1c0.5,0.1,1,0.2,1.4,0.4l1.2-3.6c-0.3-0.2-0.8-0.3-1.5-0.5C887.6,61.3,886.8,61.3,885.9,61.2z"/>
			<polygon class="st0" points="890.1,99.9 894.2,99.9 901.5,61.6 897.4,61.6 			"/>
			<polygon class="st0" points="687.3,99.9 702.1,99.9 702.9,96.2 692.1,96.2 694.9,81.6 704.3,81.6 705,78.1 695.5,78.1 698,65.2 
				708,65.2 708.7,61.6 694.6,61.6 			"/>
			<polygon class="st0" points="474.3,99.9 478.3,99.9 485.6,61.6 481.5,61.6 			"/>
			<polygon class="st0" points="371.9,99.9 376,99.9 383.3,61.6 379.2,61.6 			"/>
			<path class="st0" d="M366.7,63.8c-0.7-0.8-1.7-1.4-2.9-1.8c-1.2-0.4-2.5-0.6-4-0.6c-1,0-2,0.1-3.1,0.2c-1,0.1-2,0.2-3,0.4
				l-7.2,37.9h4l3.1-16.9h1.8c1.7,0,2.9,0.5,3.7,1.7c0.7,1.1,1.1,3,1.2,5.7l0.2,6.1c0.1,1.7,0.2,2.8,0.3,3.4h4.1
				c-0.1-0.6-0.2-1.7-0.3-3.3c-0.1-1.6-0.2-3.8-0.2-6.4c0-2.5-0.3-4.4-0.9-5.8c-0.6-1.4-1.5-2.3-2.6-2.8c2.4-1,4.3-2.4,5.7-4.5
				c1.4-2.1,2.2-4.6,2.2-7.3c0-1.2-0.2-2.3-0.5-3.3C367.9,65.4,367.4,64.5,366.7,63.8z M362.2,76.9c-1.5,1.8-3.4,2.7-5.8,2.8h-2
				l2.7-14.7c0.3-0.1,0.7-0.1,1.1-0.2c0.4,0,0.8-0.1,1.3-0.1c1.8,0,3.1,0.6,3.9,1.5c0.8,1,1.2,2.2,1.1,3.8
				C364.5,72.8,363.7,75.1,362.2,76.9z"/>
			<path class="st0" d="M431.6,80.2c-0.4,2.3-0.8,4.5-1.1,6.7l-0.8,6.4c-0.3-1.7-0.6-3.5-0.9-5.3l-1-5.7l-3.9-20.7h-3.9l-7.3,38.3
				h3.6l3.5-18.5c0.4-2.3,0.8-4.6,1.2-6.9c0.4-2.3,0.7-4.5,0.9-6.5c0.3,2.2,0.6,4.3,0.9,6.2c0.3,1.9,0.7,3.8,1.1,5.7l4,19.9h3.6
				l7.3-38.3h-3.6L431.6,80.2z"/>
			<polygon class="st0" points="452.3,99.9 456.4,99.9 459.7,82.4 469.1,82.4 469.8,78.9 460.4,78.9 463,65.2 473,65.2 473.7,61.6 
				459.6,61.6 			"/>
			<path class="st0" d="M399.7,61.6l-15.8,38.3h4.1l4.6-11.6h8.6l0.3,11.6h4l-1.3-38.3H399.7z M393.7,85.1l3.9-9.9
				c0.5-1.3,1.1-2.7,1.6-4.3c0.5-1.6,1.1-3.1,1.5-4.6l0.2,4.5c0,1.5,0,3,0,4.4l0.2,9.9H393.7z"/>
			<path class="st0" d="M262.2,61.6l-15.9,38.3h4.1l4.6-11.6h8.6l0.3,11.6h4l-1.2-38.3H262.2z M256.2,85.1l3.9-9.9
				c0.5-1.3,1-2.7,1.6-4.3c0.5-1.6,1.1-3.1,1.5-4.6l0.2,4.5c0,1.5,0,3,0,4.4l0.2,9.9H256.2z"/>
			<polygon class="st0" points="328.9,61.6 328.1,65.4 335,65.4 328.5,99.9 332.6,99.9 339.1,65.4 346,65.4 346.7,61.6 			"/>
			<path class="st0" d="M290.9,87.5c-0.6,3.2-1.4,5.6-2.5,7c-1.1,1.4-2.5,2.1-4.3,2.1c-1.2,0-2.2-0.4-3-1.2c-0.8-0.8-1.1-2-1.2-3.7
				c0-0.7,0-1.4,0.1-2.2c0.1-0.7,0.2-1.5,0.4-2.3l4.9-25.7h-4.1L276.4,87c-0.2,1-0.3,1.9-0.4,2.8c-0.1,0.9-0.1,1.7-0.1,2.4
				c0,2.7,0.8,4.7,2.2,6.1c1.4,1.4,3.3,2.1,5.6,2.1c3.1,0,5.5-1,7.4-3.1c1.9-2.1,3.2-5.5,4.1-10.1l4.8-25.6h-4.2L290.9,87.5z"/>
			<path class="st0" d="M316.7,61.2c-3.3,0.1-5.9,1.1-7.9,3.1c-1.9,2-2.9,4.5-3,7.6c0,1.8,0.5,3.5,1.3,5.1c0.9,1.6,2,3,3.4,4.4
				c1.3,1.2,2.3,2.4,3,3.6c0.7,1.2,1,2.5,1,4c0,2.1-0.6,3.8-1.8,5.2c-1.2,1.4-2.9,2.1-5.2,2.2c-1,0-2-0.1-2.9-0.4
				c-0.9-0.3-1.6-0.6-2.2-1l-1.2,3.6c0.4,0.4,1.2,0.7,2.3,1c1.1,0.3,2.4,0.5,3.8,0.5c3.6-0.1,6.4-1.2,8.4-3.4c2-2.2,3-5,3-8.6
				c0-1.9-0.5-3.6-1.3-5.2c-0.9-1.6-2-3.1-3.3-4.3c-1.3-1.2-2.3-2.3-3-3.5c-0.7-1.2-1.1-2.4-1.1-3.8c0-1.9,0.6-3.4,1.7-4.6
				c1.1-1.2,2.6-1.8,4.5-1.9c0.9,0,1.7,0.1,2.4,0.3c0.7,0.2,1.3,0.4,1.9,0.8l1.2-3.5c-0.4-0.3-1.1-0.6-2-0.9
				C318.9,61.4,317.8,61.3,316.7,61.2z"/>
		</g>
		<g>
			<path class="st0" d="M651.5,61.2c-1.9,0-3.8,0.4-5.7,1.1c-1.9,0.7-3.7,1.9-5.3,3.5c-2.6,2.7-4.5,6-5.7,9.7
				c-1.2,3.7-1.8,7.4-1.7,11c0,1.8,0.2,3.6,0.6,5.3c0.4,1.7,1,3.2,1.9,4.4c0.9,1.2,2,2.2,3.3,2.9c1.4,0.7,3,1.1,5,1.1
				c1.2,0,2.3-0.1,3.4-0.3c1-0.2,2-0.5,2.9-0.9l3.6-19H645l-0.7,3.5h4.9l-2.3,12.7c-0.4,0.1-0.8,0.3-1.2,0.3
				c-0.5,0.1-0.9,0.1-1.5,0.1c-2.4,0-4.2-1-5.2-2.8c-1.1-1.9-1.6-4.3-1.5-7.5c0-2.2,0.3-4.5,0.8-6.7c0.5-2.3,1.2-4.3,2.1-6.3
				c0.9-1.9,2-3.5,3.2-4.8c1.2-1.2,2.5-2.1,3.7-2.6c1.2-0.5,2.6-0.8,3.9-0.8c0.8,0,1.5,0.1,2.2,0.2c0.6,0.1,1.2,0.3,1.6,0.5l1.4-3.6
				c-0.5-0.2-1.1-0.4-1.9-0.5S652.7,61.3,651.5,61.2z"/>
			<path class="st0" d="M677.7,80.2c-0.4,2.3-0.8,4.5-1.1,6.7l-0.8,6.4c-0.3-1.7-0.6-3.5-0.9-5.3l-1-5.7l-3.9-20.7H666l-7.3,38.3
				h3.6l3.5-18.5c0.4-2.3,0.8-4.6,1.2-6.9c0.4-2.3,0.7-4.5,0.9-6.5c0.3,2.2,0.6,4.3,0.9,6.2c0.3,1.9,0.7,3.8,1.1,5.7l4,19.9h3.6
				l7.3-38.3h-3.6L677.7,80.2z"/>
			<path class="st0" d="M749.7,61.2c-3.3,0.1-5.9,1.1-7.9,3.1c-1.9,2-2.9,4.5-3,7.6c0,1.8,0.5,3.5,1.3,5.1c0.9,1.6,2,3,3.4,4.4
				c1.3,1.2,2.3,2.4,2.9,3.6c0.7,1.2,1,2.5,1,4c0,2.1-0.6,3.8-1.8,5.2c-1.2,1.4-2.9,2.1-5.2,2.2c-1,0-2-0.1-2.9-0.4
				c-0.9-0.3-1.6-0.6-2.2-1l-1.2,3.6c0.4,0.4,1.2,0.7,2.3,1c1.1,0.3,2.4,0.5,3.8,0.5c3.6-0.1,6.4-1.2,8.4-3.4c2-2.2,3-5,3-8.6
				c0-1.9-0.5-3.6-1.3-5.2c-0.9-1.6-2-3.1-3.3-4.3c-1.3-1.2-2.3-2.3-3-3.5c-0.7-1.2-1.1-2.4-1.1-3.8c0-1.9,0.6-3.4,1.7-4.6
				c1.1-1.2,2.6-1.8,4.5-1.9c0.9,0,1.7,0.1,2.4,0.3c0.7,0.2,1.3,0.4,1.8,0.8l1.3-3.5c-0.4-0.3-1.1-0.6-2-0.9
				C751.9,61.4,750.9,61.3,749.7,61.2z"/>
			<path class="st0" d="M730,63.8c-0.7-0.8-1.7-1.4-2.9-1.8c-1.2-0.4-2.5-0.6-4-0.6c-1,0-2,0.1-3.1,0.2c-1,0.1-2,0.2-3,0.4
				l-7.2,37.9h4L717,83h1.8c1.7,0,2.9,0.5,3.7,1.7c0.7,1.1,1.1,3,1.2,5.7l0.2,6.1c0.1,1.7,0.2,2.8,0.3,3.4h4.1
				c-0.1-0.6-0.2-1.7-0.4-3.3c-0.1-1.6-0.2-3.8-0.2-6.4c0-2.5-0.3-4.4-0.9-5.8c-0.6-1.4-1.5-2.3-2.6-2.8c2.4-1,4.3-2.4,5.7-4.5
				c1.4-2.1,2.2-4.6,2.2-7.3c0-1.2-0.2-2.3-0.5-3.3C731.2,65.4,730.7,64.5,730,63.8z M725.5,76.9c-1.5,1.8-3.4,2.7-5.8,2.8h-2
				l2.7-14.7c0.3-0.1,0.7-0.1,1.1-0.2c0.4,0,0.8-0.1,1.3-0.1c1.8,0,3.1,0.6,3.9,1.5c0.8,1,1.2,2.2,1.1,3.8
				C727.8,72.8,727,75.1,725.5,76.9z"/>
			<path class="st0" d="M566.9,65.2c-0.8-1.1-2-2.1-3.4-2.7c-1.4-0.7-3.2-1-5.2-1c-1,0-2,0.1-3,0.2c-1,0.1-1.9,0.2-2.8,0.4
				l-7.1,37.5c0.7,0.2,1.6,0.3,2.6,0.4c1,0.1,2,0.1,3.1,0.1c2,0,3.8-0.3,5.6-0.8c1.8-0.6,3.4-1.6,5-3c1.4-1.3,2.7-3.1,3.8-5.3
				c1.2-2.2,2.1-4.8,2.8-7.6c0.7-2.8,1-5.7,1.1-8.7c0-1.9-0.1-3.7-0.5-5.2C568.5,67.7,567.8,66.4,566.9,65.2z M563.8,84.3
				c-0.9,3.2-2,5.7-3.4,7.6c-1.2,1.6-2.5,2.8-3.8,3.5c-1.4,0.7-2.8,1.1-4.2,1.1c-0.4,0-0.8,0-1.2-0.1c-0.4,0-0.7-0.1-1-0.2l6-31.2
				c0.2-0.1,0.5-0.1,0.9-0.1c0.3,0,0.8,0,1.3,0c2.4,0,4.1,0.9,5.3,2.5c1.1,1.6,1.7,3.9,1.7,6.9C565.2,77.8,564.7,81.1,563.8,84.3z"
				/>
			<path class="st0" d="M527.5,83.7c-0.6,1.5-1.2,2.9-1.8,4.4c-0.6,1.5-1.1,2.9-1.7,4.5c-0.1-1.5-0.2-3-0.2-4.5
				c0-1.4-0.1-2.9-0.2-4.4l-1.4-22.2h-4.5l-9.4,38.3h3.7l5.1-21.8c0.4-1.6,0.7-3.3,1-4.9l1.1-5.4c0.1,1.9,0.2,3.8,0.2,5.4
				c0,1.7,0.1,3.3,0.2,4.9l1.4,21.5h2.7l9.4-21.1c0.7-1.5,1.4-3.2,2.1-5.1c0.7-1.8,1.4-3.7,2.1-5.7l-0.7,5.4
				c-0.3,1.7-0.5,3.3-0.8,4.9l-3.1,21.8h3.7l5.1-38.3h-4.7L527.5,83.7z"/>
			<polygon class="st0" points="617.8,99.9 621.9,99.9 629.2,61.6 625.1,61.6 			"/>
			<path class="st0" d="M782.5,61.6l-15.8,38.3h4.1l4.6-11.6h8.6l0.3,11.6h4L787,61.6H782.5z M776.6,85.1l3.9-9.9
				c0.5-1.3,1-2.7,1.6-4.3c0.5-1.6,1.1-3.1,1.5-4.6l0.2,4.5c0,1.5,0,3,0,4.4l0.2,9.9H776.6z"/>
			<path class="st0" d="M610.1,61.2c-3.3,0.1-5.9,1.1-7.9,3.1c-1.9,2-2.9,4.5-3,7.6c0,1.8,0.5,3.5,1.3,5.1c0.9,1.6,2,3,3.4,4.4
				c1.3,1.2,2.3,2.4,2.9,3.6c0.7,1.2,1,2.5,1,4c0,2.1-0.6,3.8-1.8,5.2c-1.2,1.4-2.9,2.1-5.2,2.2c-1,0-2-0.1-2.9-0.4
				c-0.9-0.3-1.6-0.6-2.2-1l-1.2,3.6c0.4,0.4,1.2,0.7,2.3,1c1.1,0.3,2.4,0.5,3.8,0.5c3.6-0.1,6.4-1.2,8.4-3.4c2-2.2,3-5,3-8.6
				c0-1.9-0.5-3.6-1.3-5.2c-0.9-1.6-2-3.1-3.3-4.3c-1.3-1.2-2.3-2.3-3-3.5c-0.7-1.2-1.1-2.4-1.1-3.8c0-1.9,0.6-3.4,1.7-4.6
				c1.1-1.2,2.6-1.8,4.5-1.9c0.9,0,1.7,0.1,2.4,0.3c0.7,0.2,1.3,0.4,1.8,0.8l1.3-3.5c-0.4-0.3-1.1-0.6-2-0.9
				C612.3,61.4,611.3,61.3,610.1,61.2z"/>
			<polygon class="st0" points="573.1,99.9 587.9,99.9 588.6,96.2 577.9,96.2 580.6,81.6 590.1,81.6 590.7,78.1 581.3,78.1 
				583.8,65.2 593.8,65.2 594.5,61.6 580.4,61.6 			"/>
			<path class="st0" d="M1014.2,61.6l-3.5,18.6c-0.4,2.3-0.8,4.5-1.1,6.7l-0.8,6.4c-0.3-1.7-0.6-3.5-0.9-5.3l-1-5.7l-3.9-20.7H999
				l-7.3,38.3h3.6l3.5-18.5c0.4-2.3,0.8-4.6,1.2-6.9c0.4-2.3,0.7-4.5,0.9-6.5c0.3,2.2,0.6,4.3,0.9,6.2c0.3,1.9,0.7,3.8,1.1,5.7
				l4,19.9h3.6l7.3-38.3H1014.2z"/>
			<polygon class="st0" points="950.1,99.9 954.2,99.9 961.4,61.6 957.3,61.6 			"/>
			<polygon class="st0" points="932.4,61.6 931.6,65.4 938.6,65.4 932,99.9 936.1,99.9 942.7,65.4 949.5,65.4 950.3,61.6 			"/>
			<path class="st0" d="M917.9,61.6L902,99.9h4.1l4.6-11.6h8.6l0.3,11.6h4l-1.3-38.3H917.9z M911.9,85.1l3.9-9.9
				c0.5-1.3,1.1-2.7,1.6-4.3c0.5-1.6,1.1-3.1,1.5-4.6l0.2,4.5c0,1.5,0,3,0,4.4l0.2,9.9H911.9z"/>
			<path class="st0" d="M985.5,63.3c-1.1-1.4-2.9-2.1-5.3-2.1c-1.3,0-2.5,0.3-3.7,0.8c-1.2,0.5-2.3,1.3-3.4,2.3
				c-1.8,1.8-3.2,4.1-4.4,6.9c-1.2,2.8-2.1,5.7-2.7,8.8c-0.6,3-0.9,5.8-0.9,8.4c0,1.4,0.1,3.1,0.5,4.9c0.4,1.9,1.1,3.5,2.3,4.9
				c1.2,1.4,3,2.1,5.4,2.2h0.1c1.3,0,2.5-0.3,3.7-0.8c1.2-0.5,2.3-1.3,3.4-2.4c1.7-1.7,3.1-4,4.2-6.7c1.1-2.8,2-5.7,2.6-8.7
				c0.6-3,0.9-5.8,0.9-8.2c0-1.7-0.1-3.5-0.4-5.4C987.3,66.2,986.6,64.6,985.5,63.3z M983.5,78.2c-0.3,1.9-0.6,3.9-1.2,6.1
				c-0.5,2.2-1.2,4.2-2,6.1c-0.8,1.9-1.8,3.5-2.9,4.7c-0.5,0.5-1.1,0.9-1.7,1.2c-0.6,0.3-1.2,0.4-1.9,0.4h0c-1.4,0-2.4-0.6-3-1.5
				c-0.6-1-1-2.1-1.2-3.5c-0.2-1.3-0.2-2.6-0.2-3.7c0-2,0.3-4.4,0.8-7.1c0.5-2.8,1.2-5.5,2.2-8.1c1-2.6,2.2-4.7,3.6-6.2
				c0.5-0.5,1.1-1,1.7-1.3c0.6-0.3,1.2-0.4,1.9-0.4c1.9,0.1,3.2,1,3.7,2.7c0.5,1.7,0.7,3.8,0.6,6.2
				C983.9,74.8,983.7,76.3,983.5,78.2z"/>
			<polygon class="st0" points="499.4,61.6 495.2,61.6 488,99.9 502.6,99.9 503.3,96.2 492.8,96.2 			"/>
			<path class="st0" d="M831.5,61.2c-3.3,0.1-5.9,1.1-7.9,3.1c-1.9,2-2.9,4.5-3,7.6c0,1.8,0.5,3.5,1.3,5.1c0.8,1.6,2,3,3.4,4.4
				c1.3,1.2,2.3,2.4,3,3.6c0.7,1.2,1,2.5,1,4c0,2.1-0.6,3.8-1.8,5.2c-1.2,1.4-2.9,2.1-5.2,2.2c-1,0-2-0.1-2.9-0.4
				c-0.9-0.3-1.6-0.6-2.2-1l-1.2,3.6c0.4,0.4,1.2,0.7,2.3,1c1.1,0.3,2.4,0.5,3.8,0.5c3.6-0.1,6.4-1.2,8.4-3.4c2-2.2,3-5,3-8.6
				c0-1.9-0.5-3.6-1.3-5.2c-0.9-1.6-2-3.1-3.3-4.3c-1.3-1.2-2.3-2.3-3-3.5c-0.7-1.2-1-2.4-1.1-3.8c0-1.9,0.6-3.4,1.7-4.6
				c1.1-1.2,2.6-1.8,4.5-1.9c0.9,0,1.7,0.1,2.4,0.3c0.7,0.2,1.3,0.4,1.8,0.8l1.2-3.5c-0.4-0.3-1.1-0.6-2-0.9
				C833.7,61.4,832.7,61.3,831.5,61.2z"/>
			<path class="st0" d="M809.4,61.2c-3.3,0.1-5.9,1.1-7.9,3.1c-1.9,2-2.9,4.5-3,7.6c0,1.8,0.5,3.5,1.3,5.1c0.9,1.6,2,3,3.4,4.4
				c1.3,1.2,2.3,2.4,3,3.6c0.7,1.2,1,2.5,1,4c0,2.1-0.6,3.8-1.8,5.2c-1.2,1.4-2.9,2.1-5.2,2.2c-1,0-2-0.1-2.9-0.4
				c-0.9-0.3-1.6-0.6-2.2-1l-1.2,3.6c0.4,0.4,1.2,0.7,2.3,1c1.1,0.3,2.4,0.5,3.8,0.5c3.6-0.1,6.4-1.2,8.4-3.4c2-2.2,3-5,3-8.6
				c0-1.9-0.5-3.6-1.3-5.2c-0.9-1.6-2-3.1-3.3-4.3c-1.3-1.2-2.3-2.3-3-3.5c-0.7-1.2-1-2.4-1.1-3.8c0-1.9,0.6-3.4,1.7-4.6
				c1.1-1.2,2.6-1.8,4.5-1.9c0.9,0,1.7,0.1,2.4,0.3c0.7,0.2,1.3,0.4,1.8,0.8l1.3-3.5c-0.4-0.3-1.1-0.6-2-0.9
				C811.6,61.4,810.5,61.3,809.4,61.2z"/>
			<path class="st0" d="M860.8,63.3c-1.1-1.4-2.9-2.1-5.3-2.1c-1.3,0-2.5,0.3-3.7,0.8c-1.2,0.5-2.3,1.3-3.4,2.3
				c-1.8,1.8-3.2,4.1-4.4,6.9c-1.2,2.8-2.1,5.7-2.7,8.8c-0.6,3-0.9,5.8-0.9,8.4c0,1.4,0.1,3.1,0.5,4.9c0.4,1.9,1.1,3.5,2.3,4.9
				c1.2,1.4,3,2.1,5.4,2.2h0.1c1.3,0,2.5-0.3,3.7-0.8c1.2-0.5,2.3-1.3,3.4-2.4c1.7-1.7,3.1-4,4.2-6.7c1.1-2.8,2-5.7,2.6-8.7
				c0.6-3,0.9-5.8,0.9-8.2c0-1.7-0.1-3.5-0.4-5.4C862.7,66.2,862,64.6,860.8,63.3z M858.8,78.2c-0.3,1.9-0.6,3.9-1.2,6.1
				c-0.5,2.2-1.2,4.2-2,6.1c-0.8,1.9-1.8,3.5-2.9,4.7c-0.5,0.5-1.1,0.9-1.7,1.2c-0.6,0.3-1.2,0.4-1.9,0.4h-0.1c-1.4,0-2.4-0.6-3-1.5
				c-0.6-1-1-2.1-1.2-3.5c-0.2-1.3-0.2-2.6-0.2-3.7c0-2,0.3-4.4,0.8-7.1c0.5-2.8,1.3-5.5,2.2-8.1c1-2.6,2.2-4.7,3.6-6.2
				c0.5-0.5,1.1-1,1.7-1.3c0.6-0.3,1.2-0.4,1.9-0.4c1.9,0.1,3.2,1,3.7,2.7c0.5,1.7,0.7,3.8,0.6,6.2
				C859.2,74.8,859.1,76.3,858.8,78.2z"/>
			<path class="st0" d="M885.9,61.2c-1.7,0-3.4,0.3-5.2,1.1c-1.8,0.7-3.5,1.9-5.1,3.5c-2.5,2.7-4.4,5.9-5.5,9.7
				c-1.2,3.8-1.7,7.6-1.7,11.4c0,2.1,0.2,4.2,0.8,6.2c0.6,2,1.6,3.7,3,5c1.4,1.3,3.5,2,6.1,2.1c1.1,0,2-0.1,2.9-0.2
				c0.9-0.1,1.6-0.4,2.2-0.7l-0.2-3.6c-0.4,0.2-1,0.4-1.7,0.5c-0.7,0.1-1.4,0.2-2.2,0.2c-2.5-0.1-4.2-1-5.1-3
				c-0.9-1.9-1.4-4.5-1.4-7.7c0-3.3,0.5-6.5,1.5-9.5c1-3,2.4-5.6,4.1-7.7c0.9-1.1,2-2,3.2-2.6c1.2-0.6,2.5-0.9,3.8-0.9
				c0.6,0,1.2,0,1.7,0.1c0.5,0.1,1,0.2,1.4,0.4l1.2-3.6c-0.3-0.2-0.8-0.3-1.5-0.5C887.6,61.3,886.8,61.3,885.9,61.2z"/>
			<polygon class="st0" points="890.1,99.9 894.2,99.9 901.5,61.6 897.4,61.6 			"/>
			<polygon class="st0" points="687.3,99.9 702.1,99.9 702.9,96.2 692.1,96.2 694.9,81.6 704.3,81.6 705,78.1 695.5,78.1 698,65.2 
				708,65.2 708.7,61.6 694.6,61.6 			"/>
			<polygon class="st0" points="474.3,99.9 478.3,99.9 485.6,61.6 481.5,61.6 			"/>
			<polygon class="st0" points="371.9,99.9 376,99.9 383.3,61.6 379.2,61.6 			"/>
			<path class="st0" d="M366.7,63.8c-0.7-0.8-1.7-1.4-2.9-1.8c-1.2-0.4-2.5-0.6-4-0.6c-1,0-2,0.1-3.1,0.2c-1,0.1-2,0.2-3,0.4
				l-7.2,37.9h4l3.1-16.9h1.8c1.7,0,2.9,0.5,3.7,1.7c0.7,1.1,1.1,3,1.2,5.7l0.2,6.1c0.1,1.7,0.2,2.8,0.3,3.4h4.1
				c-0.1-0.6-0.2-1.7-0.3-3.3c-0.1-1.6-0.2-3.8-0.2-6.4c0-2.5-0.3-4.4-0.9-5.8c-0.6-1.4-1.5-2.3-2.6-2.8c2.4-1,4.3-2.4,5.7-4.5
				c1.4-2.1,2.2-4.6,2.2-7.3c0-1.2-0.2-2.3-0.5-3.3C367.9,65.4,367.4,64.5,366.7,63.8z M362.2,76.9c-1.5,1.8-3.4,2.7-5.8,2.8h-2
				l2.7-14.7c0.3-0.1,0.7-0.1,1.1-0.2c0.4,0,0.8-0.1,1.3-0.1c1.8,0,3.1,0.6,3.9,1.5c0.8,1,1.2,2.2,1.1,3.8
				C364.5,72.8,363.7,75.1,362.2,76.9z"/>
			<path class="st0" d="M431.6,80.2c-0.4,2.3-0.8,4.5-1.1,6.7l-0.8,6.4c-0.3-1.7-0.6-3.5-0.9-5.3l-1-5.7l-3.9-20.7h-3.9l-7.3,38.3
				h3.6l3.5-18.5c0.4-2.3,0.8-4.6,1.2-6.9c0.4-2.3,0.7-4.5,0.9-6.5c0.3,2.2,0.6,4.3,0.9,6.2c0.3,1.9,0.7,3.8,1.1,5.7l4,19.9h3.6
				l7.3-38.3h-3.6L431.6,80.2z"/>
			<polygon class="st0" points="452.3,99.9 456.4,99.9 459.7,82.4 469.1,82.4 469.8,78.9 460.4,78.9 463,65.2 473,65.2 473.7,61.6 
				459.6,61.6 			"/>
			<path class="st0" d="M399.7,61.6l-15.8,38.3h4.1l4.6-11.6h8.6l0.3,11.6h4l-1.3-38.3H399.7z M393.7,85.1l3.9-9.9
				c0.5-1.3,1.1-2.7,1.6-4.3c0.5-1.6,1.1-3.1,1.5-4.6l0.2,4.5c0,1.5,0,3,0,4.4l0.2,9.9H393.7z"/>
			<path class="st0" d="M262.2,61.6l-15.9,38.3h4.1l4.6-11.6h8.6l0.3,11.6h4l-1.2-38.3H262.2z M256.2,85.1l3.9-9.9
				c0.5-1.3,1-2.7,1.6-4.3c0.5-1.6,1.1-3.1,1.5-4.6l0.2,4.5c0,1.5,0,3,0,4.4l0.2,9.9H256.2z"/>
			<polygon class="st0" points="328.9,61.6 328.1,65.4 335,65.4 328.5,99.9 332.6,99.9 339.1,65.4 346,65.4 346.7,61.6 			"/>
			<path class="st0" d="M290.9,87.5c-0.6,3.2-1.4,5.6-2.5,7c-1.1,1.4-2.5,2.1-4.3,2.1c-1.2,0-2.2-0.4-3-1.2c-0.8-0.8-1.1-2-1.2-3.7
				c0-0.7,0-1.4,0.1-2.2c0.1-0.7,0.2-1.5,0.4-2.3l4.9-25.7h-4.1L276.4,87c-0.2,1-0.3,1.9-0.4,2.8c-0.1,0.9-0.1,1.7-0.1,2.4
				c0,2.7,0.8,4.7,2.2,6.1c1.4,1.4,3.3,2.1,5.6,2.1c3.1,0,5.5-1,7.4-3.1c1.9-2.1,3.2-5.5,4.1-10.1l4.8-25.6h-4.2L290.9,87.5z"/>
			<path class="st0" d="M316.7,61.2c-3.3,0.1-5.9,1.1-7.9,3.1c-1.9,2-2.9,4.5-3,7.6c0,1.8,0.5,3.5,1.3,5.1c0.9,1.6,2,3,3.4,4.4
				c1.3,1.2,2.3,2.4,3,3.6c0.7,1.2,1,2.5,1,4c0,2.1-0.6,3.8-1.8,5.2c-1.2,1.4-2.9,2.1-5.2,2.2c-1,0-2-0.1-2.9-0.4
				c-0.9-0.3-1.6-0.6-2.2-1l-1.2,3.6c0.4,0.4,1.2,0.7,2.3,1c1.1,0.3,2.4,0.5,3.8,0.5c3.6-0.1,6.4-1.2,8.4-3.4c2-2.2,3-5,3-8.6
				c0-1.9-0.5-3.6-1.3-5.2c-0.9-1.6-2-3.1-3.3-4.3c-1.3-1.2-2.3-2.3-3-3.5c-0.7-1.2-1.1-2.4-1.1-3.8c0-1.9,0.6-3.4,1.7-4.6
				c1.1-1.2,2.6-1.8,4.5-1.9c0.9,0,1.7,0.1,2.4,0.3c0.7,0.2,1.3,0.4,1.9,0.8l1.2-3.5c-0.4-0.3-1.1-0.6-2-0.9
				C318.9,61.4,317.8,61.3,316.7,61.2z"/>
		</g>
	</g>
	<g>
		<polygon class="st0" points="182.9,100.1 202.8,100.1 202.8,68.9 234.9,68.9 234.9,51.7 202.8,51.7 202.8,38 235.6,38 235.6,20.2 
			182.9,20.5 		"/>
		<path class="st0" d="M151.8,48.2c1.7,3,2.7,6.4,2.7,10.1c0,11.2-9.1,20.3-20.3,20.3c-11.2,0-20.3-9.1-20.3-20.3
			c0-11.2,9.1-20.3,20.3-20.3c3.9,0,7.6,1.1,10.7,3l14-14c-6.8-5.4-15.4-8.6-24.7-8.6c-22,0-39.9,17.9-39.9,39.9
			c0,22,17.9,39.9,39.9,39.9c22,0,39.9-17.9,39.9-39.9c0-9.1-3-17.4-8.1-24.1L151.8,48.2z"/>
		<polygon class="st0" points="78,20 57.9,59.1 37.8,20 16.9,20 57.9,99.9 98.9,20 		"/>
		<path class="st0" d="M94.2,58.2c0-22,17.9-39.9,39.9-39.9c9.3,0,17.9,3.2,24.7,8.6l-14,14c-3.1-1.9-6.8-3-10.7-3
			c-11.2,0-20.3,9.1-20.3,20.3c0,11.2,9.1,20.3,20.3,20.3s20.3-9.1,20.3-20.3c0-3.7-1-7.1-2.7-10.1l14.1-14.1
			c5.1,6.7,8.1,15.1,8.1,24.1c0,22-17.9,39.9-39.9,39.9C112,98.1,94.2,80.3,94.2,58.2"/>
	</g>
</g>
</svg>
