<?xml version="1.0" encoding="utf-8"?>
<!-- Generator: Adobe Illustrator 22.0.1, SVG Export Plug-In . SVG Version: 6.00 Build 0)  -->
<svg version="1.1" id="Layer_1" xmlns="http://www.w3.org/2000/svg" xmlns:xlink="http://www.w3.org/1999/xlink" x="0px" y="0px"
	 viewBox="0 0 1280 124" style="enable-background:new 0 0 1280 124;" xml:space="preserve">
<style type="text/css">
	.st0{fill:none;}
	.st1{fill:#C9C9C9;}
	.st2{fill:#FFFFFF;}
</style>
<title>Asset 2</title>
<g id="Ebene_1">
	<g id="_Group_">
		<rect id="_Rectangle_" class="st0" width="1280" height="124"/>
		<g id="_Group_2">
			<g id="_Group_3">
				
					<image style="overflow:visible;enable-background:new    ;" width="24" height="29" xlink:href="EE7DC8AA374EB755.png"  transform="matrix(1 0 0 1 264 50.5)">
				</image>
				<path class="st1" d="M272.2,74.1l-6.4-22.3h4.5l2.6,10.1c0.2,1,0.5,2,0.6,3.2s0.3,2.3,0.4,3.5c0.1-1.1,0.2-2.3,0.4-3.4
					s0.4-2.2,0.6-3.2l2.6-10.2h4.6l-6.3,22.3H272.2z"/>
			</g>
			<g id="_Group_4">
				<g transform="translate(282 50.5)">
					
						<image style="overflow:visible;enable-background:new    ;" width="16" height="29" id="image" xlink:href="EE7DC8AA374EB757.png"  transform="matrix(1 0 0 1 282 50.5)">
					</image>
				</g>
				<path class="st1" d="M283.4,74.1V51.8h9.4V56h-5.1v4.5h4.6v4.1h-4.6v5.2h5.1v4.3L283.4,74.1z"/>
			</g>
			<g id="_Group_5">
				
					<image style="overflow:visible;enable-background:new    ;" width="20" height="29" xlink:href="EE7DC8AA374EB752.png"  transform="matrix(1 0 0 1 294 50.5)">
				</image>
				<path class="st1" d="M295.4,74.1V51.8h4.6c2.5,0,4.4,0.5,5.5,1.5s1.7,2.6,1.7,4.8c0.1,1.3-0.2,2.6-0.9,3.8c-0.6,1-1.6,1.7-2.6,2
					l4.2,10.2h-4.7l-3.6-9.2v9.2H295.4z M299.7,61.5h0.3h0.2c0.8,0.1,1.6-0.2,2.2-0.8c0.5-0.7,0.8-1.5,0.7-2.4
					c0.1-0.8-0.2-1.7-0.7-2.3c-0.6-0.5-1.4-0.8-2.1-0.7H300h-0.2L299.7,61.5z"/>
			</g>
			<g id="_Group_6">
				
					<image style="overflow:visible;enable-background:new    ;" width="20" height="29" xlink:href="EE7DC8AA374EB753.png"  transform="matrix(1 0 0 1 308 50.5)">
				</image>
				<path class="st1" d="M309.5,74.1V51.8h4.3c2.9,0,5,0.5,6.2,1.4c1.2,0.9,1.8,2.4,1.8,4.6c0,1-0.2,2.1-0.7,3
					c-0.5,0.8-1.3,1.5-2.1,1.9c1,0.3,1.8,1,2.4,1.8c0.6,1,0.8,2.1,0.8,3.3c0,0.9-0.2,1.9-0.5,2.7c-0.3,0.8-0.8,1.5-1.5,2.1
					c-0.7,0.6-1.5,1-2.3,1.2c-1.4,0.3-2.8,0.4-4.2,0.3L309.5,74.1z M313.8,61.1h0.5c0.9,0.1,1.8-0.2,2.5-0.7
					c0.6-0.5,0.9-1.3,0.8-2.1c0.1-0.8-0.2-1.6-0.8-2.2c-0.7-0.5-1.6-0.8-2.5-0.7h-0.4V61.1z M313.8,70.2h0.3h0.3
					c0.9,0.1,1.8-0.2,2.5-0.7c0.6-0.6,0.8-1.4,0.8-2.2c0.1-0.8-0.2-1.7-0.8-2.3c-0.7-0.5-1.7-0.8-2.6-0.7h-0.5V70.2z"/>
			</g>
			<g id="_Group_7">
				
					<image style="overflow:visible;enable-background:new    ;" width="22" height="29" xlink:href="EE7DC8AA374EB75D.png"  transform="matrix(1 0 0 1 321 50.5)">
				</image>
				<path class="st1" d="M322.5,74.1l5.2-22.3h4.6l4.9,22.3h-4.4l-0.7-3.9h-4.5l-0.7,3.9H322.5z M328.5,66.8h3
					c-0.3-1.6-0.6-3.2-0.8-4.9s-0.5-3.5-0.6-5.4c-0.2,1.7-0.5,3.4-0.7,5.1S328.8,65,328.5,66.8z"/>
			</g>
			<g id="_Group_8">
				
					<image style="overflow:visible;enable-background:new    ;" width="21" height="29" xlink:href="EE7DC8AA374EB75F.png"  transform="matrix(1 0 0 1 337 50.5)">
				</image>
				<path class="st1" d="M338.7,74.1V51.8h4.5l4.5,12c0.1,0.4,0.3,1,0.5,1.8s0.5,1.7,0.8,2.8c-0.2-1.6-0.4-3-0.5-4.3
					s-0.2-2.5-0.2-3.7v-8.6h4.1v22.3h-4.1l-4.9-12.5c-0.1-0.2-0.3-0.9-0.6-2.3l-0.4-1.4c0.1,0.9,0.2,1.8,0.2,2.9s0.1,2.4,0.1,3.9
					v9.4H338.7z"/>
			</g>
			<g id="_Group_9">
				
					<image style="overflow:visible;enable-background:new    ;" width="21" height="29" xlink:href="EE7DC8AA374EB750.png"  transform="matrix(1 0 0 1 354 50.5)">
				</image>
				<path class="st1" d="M355.6,74.1V51.8h3.8c3.4,0,6,0.9,7.7,2.8s2.5,4.6,2.5,8.4c0.1,1.9-0.3,3.9-0.9,5.7
					c-0.6,1.5-1.6,2.8-2.9,3.8c-0.8,0.6-1.7,1-2.7,1.3c-1.4,0.3-2.8,0.4-4.2,0.4L355.6,74.1z M360,70h0.4c1.4,0.1,2.8-0.6,3.6-1.8
					c0.9-1.6,1.4-3.4,1.2-5.2c0.1-1.9-0.3-3.8-1.2-5.4c-0.8-1.2-2.3-1.9-3.7-1.8H360L360,70z"/>
			</g>
			<g id="_Group_10">
				
					<image style="overflow:visible;enable-background:new    ;" width="22" height="36" xlink:href="EE7DC8AA374EB751.png"  transform="matrix(1 0 0 1 377 43.5)">
				</image>
				<path class="st1" d="M393.8,63.3c0.1,2.9-0.6,5.7-2.1,8.1c-1.3,1.9-3.4,3-5.7,3c-2.3,0.1-4.5-1.1-5.8-3c-1.4-2-2.1-4.8-2.1-8.4
					s0.7-6.4,2.1-8.4c2.1-3.2,6.4-4,9.6-1.9c0.8,0.5,1.4,1.2,1.9,1.9C393.1,56.7,393.8,59.6,393.8,63.3z M381.6,47
					c0-1,0.8-1.8,1.8-1.8c0.5,0,0.9,0.2,1.3,0.5c0.4,0.3,0.6,0.8,0.5,1.3c0,1-0.8,1.8-1.8,1.8c0,0,0,0,0,0c-0.5,0-0.9-0.2-1.3-0.5
					C381.8,48,381.6,47.5,381.6,47z M385.9,70.1c1.1,0,2.2-0.7,2.5-1.8c0.7-1.7,0.9-3.5,0.9-5.4c0.1-1.8-0.2-3.7-0.9-5.4
					c-0.5-1.4-2.1-2.1-3.5-1.6c-0.7,0.3-1.3,0.9-1.6,1.6c-0.7,1.7-0.9,3.6-0.8,5.4c-0.1,1.8,0.2,3.7,0.8,5.4
					C383.7,69.4,384.8,70.2,385.9,70.1L385.9,70.1z M386.6,47c0-1,0.8-1.8,1.8-1.8c0.5,0,1,0.2,1.3,0.5c0.7,0.7,0.7,1.9,0,2.6
					c-0.7,0.7-1.9,0.7-2.6,0C386.8,48,386.6,47.5,386.6,47z"/>
			</g>
			<g id="_Group_11">
				
					<image style="overflow:visible;enable-background:new    ;" width="17" height="29" xlink:href="EE7DC8AA374EB756.png"  transform="matrix(1 0 0 1 394 50.5)">
				</image>
				<path class="st1" d="M395.4,73.3v-4.6c0.5,0.4,1,0.8,1.6,1.1c0.5,0.2,1.1,0.4,1.6,0.4c0.6,0,1.3-0.2,1.8-0.6
					c0.4-0.4,0.7-1,0.6-1.6c0-0.8-0.6-1.8-1.8-2.8l-0.7-0.6c-1.1-0.9-2.1-2-2.8-3.3c-0.5-1-0.8-2.1-0.8-3.3
					c-0.1-1.7,0.5-3.4,1.6-4.7c1.1-1.2,2.6-1.8,4.2-1.8c0.6,0,1.2,0.1,1.8,0.3c0.7,0.2,1.3,0.5,1.9,0.8v3.9
					c-0.6-0.3-1.2-0.5-1.8-0.8c-0.4-0.1-0.8-0.2-1.1-0.2c-0.6,0-1.2,0.2-1.6,0.6c-0.4,0.4-0.6,1-0.6,1.6c0,0.6,0.2,1.1,0.5,1.6
					c0.6,0.8,1.3,1.6,2.1,2.2c1.2,0.9,2.2,2,2.9,3.2c0.4,1,0.7,2,0.6,3.1c0.1,1.8-0.5,3.5-1.7,4.8c-1.2,1.2-2.9,1.9-4.7,1.8
					c-0.7,0-1.4-0.1-2.1-0.3C396.5,74,395.9,73.7,395.4,73.3z"/>
			</g>
			<g id="_Group_12">
				<g transform="translate(405 50.5)">
					
						<image style="overflow:visible;enable-background:new    ;" width="18" height="29" id="image-5" xlink:href="782E0099FE607F5E.png"  transform="matrix(1 0 0 1 405 50.5)">
					</image>
				</g>
				<path class="st1" d="M409.7,74.1V56h-3.4v-4.2h11.3V56h-3.4v18.1H409.7z"/>
			</g>
			<g id="_Group_13">
				<g transform="translate(418 50.5)">
					
						<image style="overflow:visible;enable-background:new    ;" width="16" height="29" id="image_2_" xlink:href="782E0099FE607F59.png"  transform="matrix(1 0 0 1 418 50.5)">
					</image>
				</g>
				<path class="st1" d="M419.2,74.1V51.8h9.4V56h-5.1v4.5h4.6v4.1h-4.6v5.2h5.1v4.3L419.2,74.1z"/>
			</g>
			<g id="_Group_14">
				
					<image style="overflow:visible;enable-background:new    ;" width="19" height="29" xlink:href="782E0099FE607F5A.png"  transform="matrix(1 0 0 1 430 50.5)">
				</image>
				<path class="st1" d="M431.2,74.1V51.8h4.6c2.5,0,4.4,0.5,5.5,1.5s1.7,2.6,1.7,4.8c0.1,1.3-0.2,2.7-0.9,3.8c-0.6,1-1.5,1.7-2.6,2
					l4.3,10.2h-4.7l-3.6-9.2v9.2L431.2,74.1z M435.5,61.5h0.3h0.2c0.8,0.1,1.6-0.2,2.2-0.8c0.5-0.7,0.8-1.5,0.7-2.4
					c0.1-0.8-0.2-1.7-0.7-2.3c-0.6-0.5-1.4-0.8-2.1-0.7h-0.4h-0.2L435.5,61.5z"/>
			</g>
			<g id="_Group_15">
				<g transform="translate(444 50.5)">
					
						<image style="overflow:visible;enable-background:new    ;" width="19" height="29" id="image-2" xlink:href="782E0099FE607F58.png"  transform="matrix(1 0 0 1 444 50.5)">
					</image>
				</g>
				<path class="st1" d="M445.4,74.1V51.8h4.6c2.5,0,4.4,0.5,5.5,1.5s1.7,2.6,1.7,4.8c0.1,1.3-0.2,2.6-0.9,3.8c-0.6,1-1.6,1.7-2.6,2
					l4.3,10.2h-4.7l-3.6-9.2v9.2H445.4z M449.6,61.5h0.2h0.2c0.8,0.1,1.6-0.2,2.2-0.8c0.5-0.7,0.8-1.5,0.7-2.4
					c0.1-0.8-0.2-1.7-0.7-2.3c-0.6-0.5-1.4-0.8-2.1-0.7h-0.4h-0.2L449.6,61.5z"/>
			</g>
			<g id="_Group_16">
				<g transform="translate(458 50.5)">
					
						<image style="overflow:visible;enable-background:new    ;" width="16" height="29" id="image_3_" xlink:href="782E0099FE607F56.png"  transform="matrix(1 0 0 1 458 50.5)">
					</image>
				</g>
				<path class="st1" d="M459.5,74.1V51.8h9.4V56h-5.1v4.5h4.6v4.1h-4.6v5.2h5.1v4.3L459.5,74.1z"/>
			</g>
			<g id="_Group_17">
				<g transform="translate(470 50.5)">
					
						<image style="overflow:visible;enable-background:new    ;" width="12" height="29" id="image-3" xlink:href="782E0099FE607F49.png"  transform="matrix(1 0 0 1 470 50.5)">
					</image>
				</g>
				<path class="st1" d="M471.6,74.1V51.8h4.5v22.3H471.6z"/>
			</g>
			<g id="_Group_18">
				
					<image style="overflow:visible;enable-background:new    ;" width="19" height="29" xlink:href="782E0099FE607F4A.png"  transform="matrix(1 0 0 1 477 50.5)">
				</image>
				<path class="st1" d="M490.8,73.9c-0.4,0.2-0.8,0.3-1.3,0.4c-0.4,0.1-0.9,0.1-1.3,0.1c-2.7,0.1-5.2-1.1-6.9-3.1
					c-1.9-2.3-2.8-5.2-2.7-8.1c-0.1-3,0.8-6,2.6-8.4c1.6-2.1,4.1-3.3,6.8-3.2c0.5,0,1,0,1.5,0.1c0.4,0.1,0.9,0.2,1.3,0.4v4.2
					c-0.4-0.2-0.8-0.3-1.2-0.4c-0.4-0.1-0.8-0.1-1.2-0.1c-1.5,0-2.8,0.8-3.6,2c-1,1.6-1.5,3.4-1.4,5.2c-0.1,1.8,0.4,3.5,1.4,5
					c0.8,1.2,2.2,1.9,3.7,1.9c0.4,0,0.8,0,1.1-0.1c0.4-0.1,0.8-0.2,1.2-0.4V73.9z"/>
			</g>
			<g id="_Group_19">
				
					<image style="overflow:visible;enable-background:new    ;" width="20" height="29" xlink:href="782E0099FE607F48.png"  transform="matrix(1 0 0 1 492 50.5)">
				</image>
				<path class="st1" d="M493.1,74.1V51.8h4.4v8.2h5v-8.2h4.4v22.3h-4.4v-9.7h-5v9.7H493.1z"/>
			</g>
			<g id="_Group_20">
				<g transform="translate(509 50.5)">
					
						<image style="overflow:visible;enable-background:new    ;" width="11" height="29" id="image-6" xlink:href="782E0099FE607F4E.png"  transform="matrix(1 0 0 1 509 50.5)">
					</image>
				</g>
				<path class="st1" d="M510.1,74.1V51.8h4.5v22.3H510.1z"/>
			</g>
			<g id="_Group_21">
				
					<image style="overflow:visible;enable-background:new    ;" width="17" height="29" xlink:href="782E0099FE607F4B.png"  transform="matrix(1 0 0 1 516 50.5)">
				</image>
				<path class="st1" d="M517.3,73.3v-4.6c0.5,0.4,1,0.8,1.7,1.1c0.5,0.2,1.1,0.4,1.6,0.4c0.6,0,1.3-0.2,1.8-0.6
					c0.4-0.4,0.7-1,0.7-1.6c0-0.8-0.6-1.8-1.8-2.8l-0.7-0.6c-1.1-0.9-2.1-2-2.8-3.3c-0.5-1-0.8-2.1-0.8-3.3
					c-0.1-1.7,0.5-3.4,1.6-4.7c1.1-1.2,2.6-1.8,4.2-1.8c0.6,0,1.2,0.1,1.8,0.3c0.7,0.2,1.3,0.5,1.9,0.8v3.9
					c-0.6-0.3-1.2-0.5-1.8-0.8c-0.4-0.1-0.8-0.2-1.2-0.2c-1.2-0.1-2.1,0.8-2.2,2c0,0.1,0,0.1,0,0.2c0,0.6,0.2,1.1,0.5,1.6
					c0.6,0.8,1.3,1.6,2.1,2.2c1.2,0.9,2.2,2,2.9,3.2c0.5,1,0.7,2,0.6,3.1c0.1,1.8-0.5,3.5-1.7,4.8c-1.2,1.2-2.9,1.8-4.7,1.8
					c-0.7,0-1.4-0.1-2.1-0.3C518.5,74,517.9,73.7,517.3,73.3z"/>
			</g>
			<g id="_Group_22">
				
					<image style="overflow:visible;enable-background:new    ;" width="20" height="29" xlink:href="782E0099FE607F6D.png"  transform="matrix(1 0 0 1 527 50.5)">
				</image>
				<path class="st1" d="M541,73.9c-0.4,0.2-0.8,0.3-1.3,0.4c-0.4,0.1-0.9,0.1-1.3,0.1c-2.7,0.1-5.2-1.1-6.9-3.1
					c-1.9-2.3-2.8-5.2-2.7-8.1c-0.1-3,0.8-6,2.6-8.4c1.6-2.1,4.2-3.3,6.8-3.2c0.5,0,1,0,1.5,0.1c0.5,0.1,0.9,0.2,1.3,0.4v4.2
					c-0.4-0.2-0.8-0.3-1.2-0.4c-0.4-0.1-0.8-0.1-1.2-0.1c-1.5,0-2.8,0.8-3.6,2c-1,1.6-1.5,3.4-1.4,5.2c-0.1,1.8,0.4,3.5,1.4,5
					c0.8,1.2,2.2,1.9,3.7,1.9c0.4,0,0.8,0,1.2-0.1c0.4-0.1,0.8-0.2,1.2-0.4L541,73.9z"/>
			</g>
			<g id="_Group_23">
				
					<image style="overflow:visible;enable-background:new    ;" width="21" height="29" xlink:href="782E0099FE607F6F.png"  transform="matrix(1 0 0 1 542 50.5)">
				</image>
				<path class="st1" d="M543.3,74.1V51.8h4.4v8.2h5v-8.2h4.4v22.3h-4.4v-9.7h-5v9.7H543.3z"/>
			</g>
			<g id="_Group_24">
				<g transform="translate(559 50.5)">
					
						<image style="overflow:visible;enable-background:new    ;" width="16" height="29" id="image_4_" xlink:href="782E0099FE607F6C.png"  transform="matrix(1 0 0 1 559 50.5)">
					</image>
				</g>
				<path class="st1" d="M560.3,74.1V51.8h9.4V56h-5.1v4.5h4.6v4.1h-4.6v5.2h5.1v4.3L560.3,74.1z"/>
			</g>
			<g id="_Group_25">
				<g transform="translate(571 50.5)">
					
						<image style="overflow:visible;enable-background:new    ;" width="19" height="29" id="image-2_2_" xlink:href="782E0099FE607F6B.png"  transform="matrix(1 0 0 1 571 50.5)">
					</image>
				</g>
				<path class="st1" d="M572.3,74.1V51.8h4.7c2.5,0,4.4,0.5,5.5,1.5s1.7,2.6,1.7,4.8c0.1,1.3-0.2,2.7-0.9,3.8c-0.6,1-1.5,1.7-2.6,2
					l4.3,10.2h-4.7l-3.6-9.2v9.2H572.3z M576.6,61.5h0.3h0.2c0.8,0.1,1.6-0.2,2.2-0.8c0.5-0.7,0.8-1.5,0.7-2.4
					c0.1-0.8-0.2-1.7-0.7-2.3c-0.6-0.5-1.4-0.8-2.2-0.7h-0.3h-0.2L576.6,61.5z"/>
			</g>
			<g id="_Group_26">
				
					<image style="overflow:visible;enable-background:new    ;" width="16" height="29" xlink:href="782E0099FE607F65.png"  transform="matrix(1 0 0 1 592 50.5)">
				</image>
				<path class="st1" d="M593.1,74.1V51.8h9.6V56h-5.3v4.6h4.8v4.1h-4.8v9.4L593.1,74.1z"/>
			</g>
			<g id="_Group_27">
				<g transform="translate(603 50.5)">
					
						<image style="overflow:visible;enable-background:new    ;" width="12" height="29" id="image-3_2_" xlink:href="782E0099FE607F67.png"  transform="matrix(1 0 0 1 603 50.5)">
					</image>
				</g>
				<path class="st1" d="M604.8,74.1V51.8h4.5v22.3H604.8z"/>
			</g>
			<g id="_Group_28">
				
					<image style="overflow:visible;enable-background:new    ;" width="17" height="29" xlink:href="782E0099FE607F64.png"  transform="matrix(1 0 0 1 611 50.5)">
				</image>
				<path class="st1" d="M612.6,74.1V51.8h4.4v17.9h5v4.3H612.6z"/>
			</g>
			<g id="_Group_29">
				
					<image style="overflow:visible;enable-background:new    ;" width="27" height="29" xlink:href="782E0099FE607F9B.png"  transform="matrix(1 0 0 1 621 50.5)">
				</image>
				<path class="st1" d="M622.9,74.1l2.2-22.3h5.7l1.2,8.5c0.2,1.3,0.3,2.5,0.4,3.7c0.1,1.2,0.2,2.3,0.3,3.5c0.2-2,0.3-3.5,0.5-4.7
					s0.2-2,0.3-2.5l1.4-8.5h5.7l1.9,22.3H638l-0.5-10.3c0-0.2,0-0.6,0-1.1c-0.1-2.7-0.2-4.9-0.2-6.7l-2.9,18.1h-3.2l-2.8-18.2
					c0,1.5-0.1,3.7-0.3,6.5l-0.1,1.4l-0.7,10.3H622.9z"/>
			</g>
			<g id="_Group_30">
				
					<image style="overflow:visible;enable-background:new    ;" width="22" height="29" xlink:href="782E0099FE607F9D.png"  transform="matrix(1 0 0 1 642 50.5)">
				</image>
				<path class="st1" d="M643.3,74.1l5.2-22.3h4.7l4.9,22.3h-4.4l-0.8-3.9h-4.5l-0.7,3.9H643.3z M649.2,66.8h3
					c-0.3-1.6-0.6-3.2-0.8-4.9s-0.5-3.5-0.6-5.4c-0.2,1.7-0.5,3.4-0.7,5.1S649.5,65,649.2,66.8z"/>
			</g>
			<g id="_Group_31">
				
					<image style="overflow:visible;enable-background:new    ;" width="21" height="29" xlink:href="782E0099FE607F9F.png"  transform="matrix(1 0 0 1 657 50.5)">
				</image>
				<path class="st1" d="M672.9,51.8v14c0,1.2,0,2.4-0.2,3.6c-0.1,0.6-0.2,1.2-0.5,1.8c-0.5,1-1.3,1.9-2.3,2.4
					c-1.2,0.6-2.6,0.8-3.9,0.8c-1.4,0.1-2.7-0.2-4-0.8c-1-0.5-1.8-1.3-2.3-2.4c-0.3-0.6-0.4-1.2-0.5-1.8c-0.1-1.2-0.2-2.4-0.2-3.6
					v-14h4.4v14.3c-0.1,1.2,0.1,2.4,0.6,3.5c0.5,0.6,1.2,0.9,2,0.8c0.8,0.1,1.5-0.2,2-0.8c0.5-1.1,0.7-2.3,0.5-3.5V51.8H672.9z"/>
			</g>
			<g id="_Group_32">
				
					<image style="overflow:visible;enable-background:new    ;" width="18" height="29" xlink:href="782E0099FE607F80.png"  transform="matrix(1 0 0 1 673 50.5)">
				</image>
				<path class="st1" d="M675.3,73.3v-4.6c0.5,0.4,1,0.8,1.7,1.1c0.5,0.2,1.1,0.4,1.6,0.4c0.6,0,1.3-0.2,1.8-0.6
					c0.4-0.4,0.6-1,0.6-1.6c0-0.8-0.6-1.8-1.8-2.8l-0.7-0.6c-1.1-0.9-2.1-2-2.8-3.3c-0.5-1-0.7-2.2-0.7-3.3
					c-0.1-1.7,0.5-3.4,1.6-4.7c1.1-1.2,2.6-1.8,4.2-1.8c0.6,0,1.2,0.1,1.8,0.3c0.7,0.2,1.3,0.5,1.9,0.8v3.9
					c-0.6-0.3-1.2-0.5-1.8-0.8c-0.4-0.1-0.8-0.2-1.2-0.2c-1.2-0.1-2.1,0.8-2.2,2c0,0.1,0,0.1,0,0.2c0,0.6,0.2,1.1,0.5,1.6
					c0.6,0.8,1.3,1.5,2.1,2.2c1.1,0.9,2.1,2,2.9,3.2c0.5,1,0.7,2,0.7,3.1c0.1,1.8-0.5,3.5-1.7,4.8c-1.2,1.2-2.9,1.9-4.7,1.8
					c-0.7,0-1.4-0.1-2.1-0.3C676.4,74,675.9,73.7,675.3,73.3z"/>
			</g>
			<g id="_Group_33">
				
					<image style="overflow:visible;enable-background:new    ;" width="18" height="29" xlink:href="782E0099FE607FBF.png"  transform="matrix(1 0 0 1 685 50.5)">
				</image>
				<path class="st1" d="M687,73.3v-4.6c0.5,0.4,1,0.8,1.7,1.1c0.5,0.2,1.1,0.4,1.6,0.4c0.6,0,1.3-0.2,1.8-0.6
					c0.4-0.4,0.7-1,0.6-1.6c0-0.8-0.6-1.8-1.8-2.8l-0.7-0.6c-1.1-0.9-2.1-2-2.8-3.3c-0.5-1-0.8-2.2-0.8-3.3
					c-0.1-1.7,0.5-3.4,1.6-4.7c1.1-1.2,2.6-1.8,4.2-1.8c0.6,0,1.2,0.1,1.8,0.3c0.7,0.2,1.3,0.5,1.9,0.8v3.9
					c-0.6-0.3-1.2-0.5-1.8-0.8c-0.4-0.1-0.8-0.2-1.2-0.2c-1.2-0.1-2.1,0.8-2.2,2c0,0.1,0,0.1,0,0.2c0,0.6,0.2,1.1,0.5,1.6
					c0.6,0.8,1.3,1.6,2.1,2.2c1.1,0.9,2.1,2,2.9,3.2c0.5,1,0.7,2,0.7,3.1c0.1,1.8-0.5,3.5-1.7,4.8c-1.2,1.2-2.9,1.9-4.7,1.8
					c-0.7,0-1.4-0.1-2.1-0.3C688.1,74,687.5,73.7,687,73.3z"/>
			</g>
			<g id="_Group_34">
				<g transform="translate(696 50.5)">
					
						<image style="overflow:visible;enable-background:new    ;" width="19" height="29" id="image-4" xlink:href="782E0099FE607F81.png"  transform="matrix(1 0 0 1 696 50.5)">
					</image>
				</g>
				<path class="st1" d="M701.3,74.1V56h-3.4v-4.2h11.3V56h-3.4v18.1H701.3z"/>
			</g>
			<g id="_Group_35">
				
					<image style="overflow:visible;enable-background:new    ;" width="21" height="29" xlink:href="782E0099FE607F83.png"  transform="matrix(1 0 0 1 707 50.5)">
				</image>
				<path class="st1" d="M708.1,74.1l5.2-22.3h4.7l4.9,22.3h-4.4l-0.8-3.9h-4.5l-0.7,3.9H708.1z M714.1,66.8h3
					c-0.3-1.6-0.6-3.2-0.8-4.9s-0.5-3.5-0.6-5.4c-0.2,1.7-0.5,3.4-0.7,5.1S714.3,65,714.1,66.8z"/>
			</g>
			<g id="_Group_36">
				<g transform="translate(720 50.5)">
					
						<image style="overflow:visible;enable-background:new    ;" width="19" height="29" id="image-4_2_" xlink:href="782E0099FE607F86.png"  transform="matrix(1 0 0 1 720 50.5)">
					</image>
				</g>
				<path class="st1" d="M725.3,74.1V56h-3.4v-4.2h11.3V56h-3.4v18.1H725.3z"/>
			</g>
			<g id="_Group_37">
				<g transform="translate(733 50.5)">
					
						<image style="overflow:visible;enable-background:new    ;" width="18" height="29" id="image-5_2_" xlink:href="782E0099FE607F87.png"  transform="matrix(1 0 0 1 733 50.5)">
					</image>
				</g>
				<path class="st1" d="M737.6,74.1V56h-3.4v-4.2h11.3V56h-3.4v18.1H737.6z"/>
			</g>
			<g id="_Group_38">
				<g transform="translate(746 50.5)">
					
						<image style="overflow:visible;enable-background:new    ;" width="16" height="29" id="image_5_" xlink:href="782E0099FE607F82.png"  transform="matrix(1 0 0 1 746 50.5)">
					</image>
				</g>
				<path class="st1" d="M747.1,74.1V51.8h9.4V56h-5.1v4.5h4.6v4.1h-4.6v5.2h5.1v4.3L747.1,74.1z"/>
			</g>
			<g id="_Group_39">
				
					<image style="overflow:visible;enable-background:new    ;" width="19" height="29" xlink:href="782E0099FE607F8D.png"  transform="matrix(1 0 0 1 758 50.5)">
				</image>
				<path class="st1" d="M759.2,74.1V51.8h4.6c2.5,0,4.4,0.5,5.5,1.5c1.1,1,1.7,2.6,1.7,4.8c0.1,1.3-0.2,2.6-0.9,3.8
					c-0.6,1-1.6,1.7-2.7,2l4.3,10.2h-4.7l-3.6-9.2v9.2H759.2z M763.5,61.5h0.2h0.2c0.8,0.1,1.6-0.2,2.2-0.8c0.5-0.7,0.8-1.5,0.7-2.4
					c0.1-0.8-0.2-1.7-0.7-2.3c-0.6-0.5-1.4-0.8-2.2-0.7h-0.3h-0.2L763.5,61.5z"/>
			</g>
			<g id="_Group_40">
				
					<image style="overflow:visible;enable-background:new    ;" width="9" height="38" xlink:href="782E0099FE607F8E.png"  transform="matrix(1 0 0 1 779 46.5)">
				</image>
				<path class="st1" d="M780.1,47.5h2.7v31.2h-2.7V47.5z"/>
			</g>
			<g id="_Group_41">
				<g transform="translate(792 50.5)">
					
						<image style="overflow:visible;enable-background:new    ;" width="11" height="29" id="image-6_2_" xlink:href="782E0099FE607F8F.png"  transform="matrix(1 0 0 1 792 50.5)">
					</image>
				</g>
				<path class="st1" d="M793.1,74.1V51.8h4.5v22.3H793.1z"/>
			</g>
			<g id="_Group_42">
				
					<image style="overflow:visible;enable-background:new    ;" width="21" height="29" xlink:href="782E0099FE607FEB.png"  transform="matrix(1 0 0 1 799 50.5)">
				</image>
				<path class="st1" d="M800.9,74.1V51.8h4.5l4.5,12c0.1,0.4,0.3,1,0.5,1.8s0.5,1.7,0.8,2.8c-0.2-1.6-0.4-3-0.5-4.3
					s-0.2-2.5-0.2-3.7v-8.6h4.1v22.3h-4.1l-4.9-12.5c-0.1-0.2-0.3-0.9-0.6-2.3l-0.4-1.4c0.1,0.9,0.2,1.8,0.2,2.9s0.1,2.4,0.1,3.9
					v9.4H800.9z"/>
			</g>
			<g id="_Group_43">
				<g transform="translate(816 50.5)">
					
						<image style="overflow:visible;enable-background:new    ;" width="21" height="29" id="image-7" xlink:href="782E0099FE607FED.png"  transform="matrix(1 0 0 1 816 50.5)">
					</image>
				</g>
				<path class="st1" d="M817.8,74.1V51.8h4.5l4.5,12c0.1,0.4,0.3,1,0.6,1.8s0.5,1.7,0.8,2.8c-0.2-1.6-0.4-3-0.5-4.3
					s-0.2-2.5-0.2-3.7v-8.6h4.1v22.3h-4.1l-4.9-12.5c-0.1-0.2-0.3-0.9-0.6-2.3c-0.2-0.6-0.3-1.1-0.4-1.4c0.1,0.9,0.2,1.8,0.2,2.9
					s0.1,2.4,0.1,3.9v9.4H817.8z"/>
			</g>
			<g id="_Group_44">
				
					<image style="overflow:visible;enable-background:new    ;" width="17" height="29" xlink:href="782E0099FE607FEF.png"  transform="matrix(1 0 0 1 833 50.5)">
				</image>
				<path class="st1" d="M834.8,74.1V51.8h9.4V56h-5.1v4.5h4.6v4.1h-4.6v5.2h5.1v4.3L834.8,74.1z"/>
			</g>
			<g id="_Group_45">
				<g transform="translate(845 50.5)">
					
						<image style="overflow:visible;enable-background:new    ;" width="21" height="29" id="image-7_2_" xlink:href="782E0099FE607FEA.png"  transform="matrix(1 0 0 1 845 50.5)">
					</image>
				</g>
				<path class="st1" d="M846.8,74.1V51.8h4.5l4.5,12c0.1,0.4,0.3,1,0.6,1.8s0.5,1.7,0.8,2.8c-0.2-1.6-0.4-3-0.5-4.3
					s-0.2-2.5-0.2-3.7v-8.6h4.1v22.3h-4.1l-4.9-12.5c-0.1-0.2-0.3-0.9-0.6-2.3l-0.4-1.4c0.1,0.9,0.2,1.8,0.2,2.9s0.1,2.4,0.1,3.9
					v9.4H846.8z"/>
			</g>
			<g id="_Group_46">
				
					<image style="overflow:visible;enable-background:new    ;" width="17" height="32" xlink:href="782E0099FE607FE9.png"  transform="matrix(1 0 0 1 867 50.5)">
				</image>
				<path class="st1" d="M875.7,51.5h2.7L871.5,77h-2.7L875.7,51.5z"/>
			</g>
			<g id="_Group_47">
				
					<image style="overflow:visible;enable-background:new    ;" width="20" height="30" xlink:href="782E0099FE607FE5.png"  transform="matrix(1 0 0 1 883 49.5)">
				</image>
				<path class="st1" d="M893.7,50.6h2.5l1.3,23.5h-3.2l-0.2-4.6h-4.7l-1.6,4.6h-3.1L893.7,50.6z M890.4,67.1h3.7l0.1-12h-0.1
					L890.4,67.1z"/>
			</g>
			<g id="_Group_48">
				
					<image style="overflow:visible;enable-background:new    ;" width="21" height="30" xlink:href="782E0099FE607FE7.png"  transform="matrix(1 0 0 1 898 49.5)">
				</image>
				<path class="st1" d="M902.8,50.6h3.2L903.3,67c-0.2,0.8-0.3,1.7-0.3,2.5c0,0.5,0.1,1,0.4,1.4c0.3,0.4,0.8,0.5,1.3,0.5
					c1.1,0.1,2.1-0.5,2.5-1.5c0.2-0.8,0.4-1.6,0.5-2.4l2.7-17h3.2l-2.7,16.8c-0.2,1.1-0.4,2.2-0.7,3.2c-0.4,1.5-1.5,2.8-3,3.4
					c-0.9,0.3-1.8,0.5-2.8,0.5c-0.9,0-1.7-0.1-2.5-0.4c-1.2-0.6-1.9-1.9-2-3.9c0.1-0.7,0.1-1.6,0.2-2.7L902.8,50.6z"/>
			</g>
			<g id="_Group_49">
				
					<image style="overflow:visible;enable-background:new    ;" width="19" height="31" xlink:href="782E0099FE607FFA.png"  transform="matrix(1 0 0 1 911 48.5)">
				</image>
				<path class="st1" d="M913.4,70.2c0.8,0.7,1.8,1.2,2.9,1.3c0.9,0,1.8-0.4,2.3-1.1c0.6-0.7,1-1.6,1-2.6c0-0.9-0.2-1.7-0.6-2.4
					c-0.6-0.9-1.2-1.7-1.9-2.5c-0.7-0.8-1.3-1.6-1.8-2.5c-0.4-0.9-0.7-1.8-0.6-2.8c0-2.9,1.1-5.1,3.2-6.4c1-0.6,2.1-0.9,3.2-0.9
					c1.1,0,2.2,0.3,3.2,0.8l-0.5,3.2c-0.7-0.7-1.6-1-2.5-1c-0.9,0-1.7,0.4-2.3,1c-0.6,0.7-0.9,1.5-1.1,2.3c0,0.9,0.3,1.7,0.8,2.4
					c0.1,0.2,0.6,0.9,1.5,2.1c1.7,2.3,2.6,4.2,2.6,5.8c0.1,2.6-1,5-3.2,6.5c-1,0.7-2.3,1.1-3.5,1.1c-1.2,0.1-2.3-0.3-3.2-1.1
					L913.4,70.2z"/>
			</g>
			<g id="_Group_50">
				
					<image style="overflow:visible;enable-background:new    ;" width="18" height="30" xlink:href="782E0099FE607FFB.png"  transform="matrix(1 0 0 1 924 49.5)">
				</image>
				<path class="st1" d="M925.8,50.6h10.4l-0.4,2.7h-3.6l-3.3,20.9h-3.2l3.4-20.9h-3.7L925.8,50.6z"/>
			</g>
			<g id="_Group_51">
				
					<image style="overflow:visible;enable-background:new    ;" width="20" height="30" xlink:href="782E0099FE607FFD.png"  transform="matrix(1 0 0 1 932 49.5)">
				</image>
				<path class="st1" d="M933.9,74.1l3.7-23.5h4.3c1.2-0.1,2.4,0.2,3.3,0.9c0.8,0.9,1.2,2,1.1,3.2c0.1,2.3-0.5,4.5-1.7,6.4
					c-0.6,0.8-1.5,1.4-2.5,1.5l2.6,11.5h-3.3L939,62.6h-0.1L937,74.1H933.9z M939.2,61c2.5,0,3.8-1.9,3.8-5.6
					c0.1-0.7-0.1-1.4-0.6-1.9c-0.6-0.3-1.3-0.5-2-0.4L939.2,61z"/>
			</g>
			<g id="_Group_52">
				
					<image style="overflow:visible;enable-background:new    ;" width="14" height="30" xlink:href="782E0099FE607FDA.png"  transform="matrix(1 0 0 1 945 49.5)">
				</image>
				<path class="st1" d="M953.5,50.6l-3.7,23.5h-3.1l3.7-23.5H953.5z"/>
			</g>
			<g id="_Group_53">
				
					<image style="overflow:visible;enable-background:new    ;" width="20" height="30" xlink:href="782E0099FE607FDD.png"  transform="matrix(1 0 0 1 950 49.5)">
				</image>
				<path class="st1" d="M960.2,50.6h2.5l1.3,23.5h-3.2l-0.2-4.6H956l-1.6,4.6h-3.1L960.2,50.6z M956.9,67.1h3.7l0.1-12h-0.1
					L956.9,67.1z"/>
			</g>
			<g id="_Group_54">
				
					<image style="overflow:visible;enable-background:new    ;" width="22" height="30" xlink:href="782E0099FE607FDE.png"  transform="matrix(1 0 0 1 964 49.5)">
				</image>
				<path class="st1" d="M965.7,74.1l3.7-23.5h3l2.8,17.9l0.1-0.1l0.3-4.7c0.2-2.7,0.5-5.2,0.8-7.6c0.2-1.5,0.5-3.4,0.9-5.5h3.2
					l-3.7,23.5h-2.9l-2.7-18.2L971,56c-0.2,3.8-0.6,7.7-1.3,11.9c-0.3,2-0.6,4.1-1,6.2L965.7,74.1z"/>
			</g>
			<g id="_Group_55">
				
					<image style="overflow:visible;enable-background:new    ;" width="20" height="30" xlink:href="782E0099FE607FDC.png"  transform="matrix(1 0 0 1 985 49.5)">
				</image>
				<path class="st1" d="M990.6,50.6h8.5l-0.4,2.7h-5.3l-1.2,7.4h4.8l-0.4,2.7h-4.8L990,74.1h-3.1L990.6,50.6z"/>
			</g>
			<g id="_Group_56">
				
					<image style="overflow:visible;enable-background:new    ;" width="13" height="30" xlink:href="782E0099FE607FDB.png"  transform="matrix(1 0 0 1 996 49.5)">
				</image>
				<path class="st1" d="M1003.9,50.6l-3.7,23.5h-3.1l3.7-23.5H1003.9z"/>
			</g>
			<g id="_Group_57">
				
					<image style="overflow:visible;enable-background:new    ;" width="16" height="30" xlink:href="782E0099FE607FD5.png"  transform="matrix(1 0 0 1 1002 49.5)">
				</image>
				<path class="st1" d="M1007.5,50.6h3.1l-3.2,20.8h5.2l-0.4,2.7h-8.4L1007.5,50.6z"/>
			</g>
			<g id="_Group_58">
				
					<image style="overflow:visible;enable-background:new    ;" width="24" height="30" xlink:href="782E0099FE607FD6.png"  transform="matrix(1 0 0 1 1012 49.5)">
				</image>
				<path class="st1" d="M1018.8,50.6h2.7l0.7,17l0,0c1.2-3.9,3.1-9.6,5.7-17h2.8l-1.5,23.6h-3.1c0-0.3,0.2-1.6,0.4-4l0.5-5.1
					c0.3-2.8,0.6-5.1,0.9-7.1h-0.1c-0.5,1.7-1.4,4.4-2.7,8l-1.5,4.4c-0.4,1.2-0.9,2.5-1.3,3.8h-2.1l-0.5-16.2h-0.1l-3.5,16.2h-3
					L1018.8,50.6z"/>
			</g>
			<g id="_Group_59">
				
					<image style="overflow:visible;enable-background:new    ;" width="21" height="30" xlink:href="782E0099FE607FD4.png"  transform="matrix(1 0 0 1 1030 49.5)">
				</image>
				<path class="st1" d="M1035.5,50.6h4.9c1.4-0.1,2.7,0.5,3.7,1.5c1,1.3,1.5,2.9,1.3,4.5v0.7c0,3.5-0.5,6.9-1.6,10.2
					c-1.1,3.6-2.9,5.6-5.2,6.2c-1.4,0.3-2.8,0.5-4.3,0.4h-2.6L1035.5,50.6z M1038.2,53.2l-2.9,18.2c2.5,0.2,4.8-1.5,5.4-4
					c0.6-2.2,1-4.4,1.3-6.6c0.2-1.1,0.2-2.3,0.3-3.4c0.1-1.1-0.3-2.2-1-3.1C1040.4,53.5,1039.3,53.1,1038.2,53.2z"/>
			</g>
			<g id="_Group_60">
				
					<image style="overflow:visible;enable-background:new    ;" width="19" height="30" xlink:href="782E0099FE607FCA.png"  transform="matrix(1 0 0 1 1045 49.5)">
				</image>
				<path class="st1" d="M1049.8,50.6h8.4l-0.4,2.7h-5.2l-1.2,7.4h4.8l-0.4,2.7h-4.7l-1.2,8h5.2l-0.4,2.7h-8.4L1049.8,50.6z"/>
			</g>
			<g id="_Group_61">
				
					<image style="overflow:visible;enable-background:new    ;" width="18" height="31" xlink:href="782E0099FE607FCD.png"  transform="matrix(1 0 0 1 1055 48.5)">
				</image>
				<path class="st1" d="M1056.9,70.2c0.8,0.7,1.8,1.2,2.9,1.3c0.9,0,1.8-0.4,2.3-1.1c0.6-0.7,1-1.6,1-2.6c0-0.9-0.2-1.7-0.6-2.4
					c-0.6-0.9-1.2-1.7-1.9-2.5c-0.7-0.8-1.3-1.6-1.8-2.5c-0.4-0.9-0.7-1.8-0.6-2.8c0-2.9,1.1-5.1,3.2-6.4c1-0.6,2.1-0.9,3.2-0.9
					c1.1,0,2.2,0.3,3.2,0.8l-0.5,3.2c-0.7-0.7-1.6-1-2.5-1c-0.9,0-1.7,0.4-2.3,1c-0.6,0.7-0.9,1.5-1.1,2.3c0,0.9,0.3,1.7,0.8,2.4
					c0.1,0.2,0.6,0.9,1.5,2.1c1.7,2.3,2.6,4.2,2.6,5.8c0.1,2.6-1,5-3.2,6.5c-1,0.7-2.3,1.1-3.5,1.1c-1.2,0.1-2.3-0.3-3.2-1.1
					L1056.9,70.2z"/>
			</g>
			<g id="_Group_62">
				
					<image style="overflow:visible;enable-background:new    ;" width="14" height="30" xlink:href="782E0099FE608031.png"  transform="matrix(1 0 0 1 1066 49.5)">
				</image>
				<path class="st1" d="M1074,50.6l-3.7,23.5h-3.1l3.7-23.5H1074z"/>
			</g>
			<g id="_Group_63">
				
					<image style="overflow:visible;enable-background:new    ;" width="21" height="31" xlink:href="782E0099FE608033.png"  transform="matrix(1 0 0 1 1073 48.5)">
				</image>
				<path class="st1" d="M1081.4,61.7h5.7l-0.5,3.5c-0.2,1.3-0.5,2.6-0.9,3.9c-0.5,2-1.7,3.7-3.4,4.7c-0.9,0.4-1.8,0.7-2.8,0.7
					c-2.3,0-3.8-0.9-4.4-2.8c-0.4-1.1-0.6-2.3-0.5-3.4c0.1-2.3,0.3-4.6,0.8-6.9c0.3-1.8,0.7-3.6,1.3-5.3c0.9-2.7,2.2-4.5,3.8-5.2
					c0.9-0.4,1.9-0.6,2.9-0.5c2.8,0,4.4,1.6,4.8,4.8l-3.2,1.2c0-2.1-0.7-3.1-2.1-3.1c-1.1,0-2,0.7-2.6,2.1c-0.7,2-1.2,4-1.4,6.1
					c-0.2,1.4-0.4,2.8-0.5,4.1c-0.1,1.1-0.2,2.2-0.2,3.3c0,0.6,0.1,1.2,0.3,1.8c0.1,0.3,0.3,0.6,0.6,0.8c0.3,0.1,0.7,0.2,1,0.2
					c0.7,0,1.3-0.3,1.7-0.8c0.9-1.3,1.5-2.8,1.6-4.4l0.3-1.8h-2.6L1081.4,61.7z"/>
			</g>
			<g id="_Group_64">
				
					<image style="overflow:visible;enable-background:new    ;" width="22" height="30" xlink:href="782E0099FE608030.png"  transform="matrix(1 0 0 1 1086 49.5)">
				</image>
				<path class="st1" d="M1088,74.1l3.7-23.5h3l2.8,17.9l0.1-0.1l0.3-4.7c0.2-2.7,0.5-5.2,0.8-7.6c0.2-1.6,0.5-3.4,0.9-5.5h3.2
					l-3.7,23.5h-3l-2.6-18.2l-0.1,0.1c-0.2,3.8-0.6,7.7-1.3,11.9c-0.3,2-0.6,4.1-1,6.2H1088z"/>
			</g>
			<g id="_Group_65">
				
					<image style="overflow:visible;enable-background:new    ;" width="19" height="30" xlink:href="782E0099FE60802F.png"  transform="matrix(1 0 0 1 1101 49.5)">
				</image>
				<path class="st1" d="M1106.2,50.6h8.4l-0.4,2.7h-5.2l-1.2,7.4h4.8l-0.4,2.7h-4.8l-1.2,8h5.2l-0.4,2.7h-8.4L1106.2,50.6z"/>
			</g>
			<g id="_Group_66">
				
					<image style="overflow:visible;enable-background:new    ;" width="20" height="30" xlink:href="782E0099FE608051.png"  transform="matrix(1 0 0 1 1111 49.5)">
				</image>
				<path class="st1" d="M1112.8,74.1l3.7-23.5h4.3c1.2-0.1,2.4,0.2,3.3,0.9c0.8,0.9,1.2,2,1.1,3.2c0.1,2.3-0.5,4.5-1.7,6.4
					c-0.6,0.8-1.5,1.4-2.5,1.5l2.6,11.5h-3.3l-2.4-11.5h-0.1l-1.8,11.5H1112.8z M1118.1,61c2.6,0,3.8-1.9,3.8-5.6
					c0.1-0.7-0.1-1.4-0.6-1.9c-0.6-0.3-1.3-0.5-2-0.4L1118.1,61z"/>
			</g>
			<g id="_Group_67">
				
					<image style="overflow:visible;enable-background:new    ;" width="19" height="31" xlink:href="782E0099FE608053.png"  transform="matrix(1 0 0 1 1123 48.5)">
				</image>
				<path class="st1" d="M1125.5,70.2c0.8,0.7,1.8,1.2,2.9,1.3c0.9,0,1.8-0.4,2.3-1.1c0.6-0.7,1-1.6,1-2.6c0-0.9-0.2-1.7-0.6-2.4
					c-0.6-0.9-1.2-1.7-1.9-2.5c-0.7-0.8-1.3-1.6-1.8-2.5c-0.4-0.9-0.6-1.8-0.6-2.8c0-2.9,1.1-5.1,3.2-6.4c1-0.6,2.1-0.9,3.2-0.9
					c1.1,0,2.2,0.3,3.2,0.8l-0.5,3.2c-0.7-0.7-1.6-1-2.5-1c-0.9,0-1.7,0.4-2.3,1c-0.6,0.7-0.9,1.5-1.1,2.3c0,0.9,0.3,1.7,0.8,2.4
					c0.1,0.2,0.6,0.9,1.5,2.1c1.7,2.3,2.6,4.2,2.6,5.8c0.1,2.6-1,5-3.2,6.5c-1,0.7-2.3,1.1-3.5,1.1c-1.2,0.1-2.3-0.3-3.2-1.1
					L1125.5,70.2z"/>
			</g>
			<g id="_Group_68">
				
					<image style="overflow:visible;enable-background:new    ;" width="19" height="30" xlink:href="782E0099FE608050.png"  transform="matrix(1 0 0 1 1140 49.5)">
				</image>
				<path class="st1" d="M1150,50.6h2.5l1.3,23.5h-3.2l-0.2-4.6h-4.7l-1.6,4.6h-3.1L1150,50.6z M1146.7,67.1h3.7l0.1-12h-0.1
					L1146.7,67.1z"/>
			</g>
			<g id="_Group_69">
				
					<image style="overflow:visible;enable-background:new    ;" width="18" height="31" xlink:href="782E0099FE608057.png"  transform="matrix(1 0 0 1 1154 48.5)">
				</image>
				<path class="st1" d="M1155.6,70.2c0.8,0.7,1.8,1.2,2.9,1.3c0.9,0,1.8-0.4,2.3-1.1c0.6-0.7,1-1.6,1-2.6c0-0.9-0.2-1.7-0.6-2.4
					c-0.6-0.9-1.2-1.7-1.9-2.5c-0.7-0.8-1.3-1.6-1.8-2.5c-0.4-0.9-0.6-1.8-0.6-2.8c0-2.9,1.1-5.1,3.2-6.4c1-0.6,2.1-0.9,3.2-0.9
					c1.1,0,2.2,0.3,3.2,0.8l-0.5,3.2c-0.7-0.7-1.6-1-2.5-1c-0.9,0-1.7,0.4-2.3,1c-0.6,0.7-0.9,1.5-1.1,2.3c0,0.9,0.3,1.7,0.8,2.4
					c0.1,0.2,0.6,0.9,1.5,2.1c1.7,2.3,2.6,4.2,2.6,5.8c0.1,2.6-1,5-3.2,6.5c-1,0.7-2.3,1.1-3.5,1.1c-1.2,0.1-2.3-0.3-3.2-1.1
					L1155.6,70.2z"/>
			</g>
			<g id="_Group_70">
				
					<image style="overflow:visible;enable-background:new    ;" width="19" height="31" xlink:href="782E0099FE608052.png"  transform="matrix(1 0 0 1 1164 48.5)">
				</image>
				<path class="st1" d="M1166.2,70.2c0.8,0.7,1.8,1.2,2.9,1.3c0.9,0,1.8-0.4,2.3-1.1c0.7-0.7,1-1.6,1-2.6c0-0.9-0.2-1.7-0.6-2.4
					c-0.6-0.9-1.2-1.7-1.9-2.5c-0.7-0.8-1.3-1.6-1.8-2.5c-0.4-0.9-0.7-1.8-0.6-2.8c0-2.9,1.1-5.1,3.2-6.4c1-0.6,2.1-0.9,3.2-0.9
					c1.1,0,2.2,0.3,3.2,0.8l-0.5,3.2c-0.7-0.7-1.6-1-2.5-1c-0.9,0-1.7,0.4-2.3,1c-0.6,0.7-0.9,1.5-1.1,2.3c0,0.9,0.3,1.7,0.8,2.4
					c0.1,0.2,0.6,0.9,1.5,2.1c1.7,2.3,2.6,4.2,2.6,5.8c0.1,2.6-1,5-3.2,6.5c-1,0.7-2.2,1.1-3.5,1.1c-1.2,0.1-2.3-0.3-3.2-1.1
					L1166.2,70.2z"/>
			</g>
			<g id="_Group_71">
				
					<image style="overflow:visible;enable-background:new    ;" width="20" height="31" xlink:href="782E0099FE60805E.png"  transform="matrix(1 0 0 1 1176 48.5)">
				</image>
				<path class="st1" d="M1177.2,67.4c0.3-3.1,0.6-5.4,0.9-7c0.4-2.3,1.2-4.5,2.2-6.6c0.8-1.7,2.3-3,4.1-3.4c0.5-0.1,1-0.1,1.6-0.1
					c1.5-0.1,2.9,0.6,3.7,1.8c0.7,1.3,1.1,2.7,1,4.2c0,0.1,0,0.4,0,0.7c-0.3,5.3-1.1,9.3-2.3,12.3c-1.4,3.4-3.6,5.1-6.5,5.1
					c-2,0.1-3.7-1.2-4.2-3.1c-0.3-1-0.5-2-0.5-3.1C1177.2,67.9,1177.2,67.6,1177.2,67.4z M1180.7,67.3c0,0.3,0,0.6-0.1,1
					c0.1,2.1,0.8,3.1,2.2,3.1c0.9,0,1.7-0.8,2.4-2.4c0.7-1.7,1.2-3.5,1.5-5.4c0.4-2.1,0.6-3.9,0.7-5.5c0-0.2,0-0.5,0-0.9
					s0-0.7,0-0.9c0-0.8-0.1-1.5-0.3-2.3c-0.3-0.7-1-1.2-1.8-1.1c-1.5,0-2.6,1.8-3.4,5.4c-0.3,1.5-0.6,3-0.8,4.5
					C1180.8,64.8,1180.7,66.3,1180.7,67.3z"/>
			</g>
			<g id="_Group_72">
				
					<image style="overflow:visible;enable-background:new    ;" width="19" height="31" xlink:href="782E0099FE608074.png"  transform="matrix(1 0 0 1 1191 48.5)">
				</image>
				<path class="st1" d="M1204,50.9l-0.4,2.9c-0.6-0.4-1.3-0.7-2-0.7c-1.6,0-2.9,0.9-3.9,2.6c-1,2-1.6,4.1-1.9,6.2
					c-0.3,1.4-0.4,2.7-0.4,4.1c0,1.3,0.3,2.7,0.8,3.9c0.5,1,1.6,1.6,2.7,1.5c0.7,0,1.3-0.2,1.9-0.6l-0.4,2.8
					c-0.8,0.5-1.8,0.7-2.7,0.7c-1,0-1.9-0.2-2.8-0.7c-0.8-0.4-1.4-1-1.9-1.8c-0.7-1.6-1-3.3-0.9-5.1c0-1.9,0.2-3.8,0.6-5.6
					c0.8-4.4,2.1-7.4,3.8-9c1.3-1.3,3-2.1,4.8-2.1C1202.2,50.2,1203.2,50.5,1204,50.9z"/>
			</g>
			<g id="_Group_73">
				
					<image style="overflow:visible;enable-background:new    ;" width="13" height="30" xlink:href="782E0099FE60807B.png"  transform="matrix(1 0 0 1 1201 49.5)">
				</image>
				<path class="st1" d="M1209,50.6l-3.7,23.5h-3.1l3.7-23.5H1209z"/>
			</g>
			<g id="_Group_74">
				
					<image style="overflow:visible;enable-background:new    ;" width="20" height="30" xlink:href="782E0099FE60807C.png"  transform="matrix(1 0 0 1 1205 49.5)">
				</image>
				<path class="st1" d="M1215.8,50.6h2.5l1.3,23.5h-3.2l-0.2-4.6h-4.7l-1.5,4.6h-3.1L1215.8,50.6z M1212.5,67.1h3.7l0.1-12h-0.1
					L1212.5,67.1z"/>
			</g>
			<g id="_Group_75">
				
					<image style="overflow:visible;enable-background:new    ;" width="18" height="30" xlink:href="782E0099FE60807F.png"  transform="matrix(1 0 0 1 1220 49.5)">
				</image>
				<path class="st1" d="M1222.2,50.6h10.4l-0.4,2.7h-3.6l-3.3,20.9h-3.2l3.4-20.9h-3.7L1222.2,50.6z"/>
			</g>
			<g id="_Group_76">
				
					<image style="overflow:visible;enable-background:new    ;" width="14" height="30" xlink:href="782E0099FE60807D.png"  transform="matrix(1 0 0 1 1229 49.5)">
				</image>
				<path class="st1" d="M1237.1,50.6l-3.7,23.5h-3.1l3.7-23.5H1237.1z"/>
			</g>
			<g id="_Group_77">
				
					<image style="overflow:visible;enable-background:new    ;" width="21" height="31" xlink:href="782E0099FE60807A.png"  transform="matrix(1 0 0 1 1236 48.5)">
				</image>
				<path class="st1" d="M1237.6,67.4c0.3-3.1,0.6-5.4,0.9-7c0.4-2.3,1.2-4.5,2.2-6.6c0.8-1.7,2.3-3,4.1-3.4c0.5-0.1,1-0.1,1.6-0.1
					c1.5-0.1,2.9,0.6,3.7,1.8c0.7,1.3,1.1,2.7,1,4.2c0,0.1,0,0.4,0,0.7c-0.3,5.3-1.1,9.3-2.3,12.3c-1.4,3.4-3.6,5.1-6.5,5.1
					c-2,0.1-3.7-1.2-4.2-3.1c-0.3-1-0.5-2-0.5-3.1C1237.6,67.9,1237.6,67.7,1237.6,67.4z M1241,67.3c0,0.3,0,0.6-0.1,1
					c0.1,2.1,0.8,3.1,2.2,3.1c0.9,0,1.7-0.8,2.4-2.4c0.7-1.7,1.2-3.5,1.5-5.4c0.4-2.1,0.6-3.9,0.7-5.5c0-0.2,0-0.5,0-0.9
					s0-0.7,0-0.9c0-0.8-0.1-1.5-0.3-2.3c-0.3-0.7-1-1.2-1.8-1.1c-1.5,0-2.6,1.8-3.5,5.4c-0.3,1.5-0.6,3-0.8,4.5
					C1241.2,64.8,1241.1,66.3,1241,67.3L1241,67.3z"/>
			</g>
			<g id="_Group_78">
				
					<image style="overflow:visible;enable-background:new    ;" width="22" height="30" xlink:href="782E0099FE608075.png"  transform="matrix(1 0 0 1 1250 49.5)">
				</image>
				<path class="st1" d="M1251.7,74.1l3.7-23.5h3l2.8,17.9l0.1-0.1l0.3-4.7c0.2-2.7,0.5-5.2,0.8-7.6c0.2-1.6,0.5-3.4,0.9-5.5h3.2
					l-3.7,23.5h-2.9l-2.6-18.2L1257,56c-0.2,3.8-0.6,7.7-1.3,11.9c-0.3,2-0.6,4.1-1,6.2L1251.7,74.1z"/>
			</g>
		</g>
		<g id="_Group_79">
			<g id="_Group_80">
				
					<image style="overflow:visible;enable-background:new    ;" width="97" height="93" xlink:href="782E0099FE608077.png"  transform="matrix(1 0 0 1 12 18.5)">
				</image>
				<polygon class="st1" points="77.5,20 58.6,56.3 39.7,20 13.6,20 58.6,106.3 103.6,20 				"/>
				<g>
					<polygon class="st2" points="77.5,20 58.6,56.3 39.7,20 13.6,20 58.6,106.3 103.6,20 					"/>
				</g>
			</g>
			<g id="_Group_81">
				
					<image style="overflow:visible;enable-background:new    ;" width="94" height="93" xlink:href="782E0099FE60806A.png"  transform="matrix(1 0 0 1 92 16.5)">
				</image>
				<path class="st1" d="M154.2,50c2.1,3.3,3.3,7.1,3.3,11c0.1,11.2-8.9,20.4-20.2,20.5s-20.4-8.9-20.5-20.2
					c-0.1-11.2,8.9-20.4,20.2-20.5c3.9,0,7.7,1.1,11,3.2l16.5-16.5c-18.6-15.1-45.9-12.3-61,6.3s-12.3,45.9,6.3,61s45.9,12.3,61-6.3
					c13-16,13-39-0.1-54.9L154.2,50z"/>
				<g>
					<path class="st2" d="M154.2,50c2.1,3.3,3.3,7.1,3.3,11c0.1,11.2-8.9,20.4-20.2,20.5s-20.4-8.9-20.5-20.2
						c-0.1-11.2,8.9-20.4,20.2-20.5c3.9,0,7.7,1.1,11,3.2l16.5-16.5c-18.6-15.1-45.9-12.3-61,6.3s-12.3,45.9,6.3,61
						s45.9,12.3,61-6.3c13-16,13-39-0.1-54.9L154.2,50z"/>
				</g>
			</g>
			<g id="_Group_82">
				
					<image style="overflow:visible;enable-background:new    ;" width="64" height="93" xlink:href="782E0099FE60806B.png"  transform="matrix(1 0 0 1 185 18.5)">
				</image>
				<polygon class="st1" points="243.6,41 243.6,20 209.1,20 201.4,20 186.1,20 186.1,106.2 209.1,106.2 209.1,72.7 243.6,72.7 
					243.6,52.5 209.1,52.5 209.1,41 				"/>
				<g>
					<polygon class="st2" points="243.6,41 243.6,20 209.1,20 201.4,20 186.1,20 186.1,106.2 209.1,106.2 209.1,72.7 243.6,72.7 
						243.6,52.5 209.1,52.5 209.1,41 					"/>
				</g>
			</g>
		</g>
	</g>
</g>
</svg>
